<?xml version="1.0" encoding="UTF-8"?>
<svg id="Layer_2" data-name="Layer 2" xmlns="http://www.w3.org/2000/svg" viewBox="0 0 358.14 350.94">
  <defs>
    <style>
      .cls-1, .cls-2, .cls-3, .cls-4, .cls-5, .cls-6, .cls-7, .cls-8, .cls-9, .cls-10, .cls-11, .cls-12, .cls-13, .cls-14 {
        stroke: #00a79d;
      }

      .cls-1, .cls-2, .cls-3, .cls-5, .cls-6, .cls-7, .cls-8, .cls-9, .cls-10, .cls-11, .cls-12, .cls-13, .cls-14 {
        stroke-miterlimit: 10;
      }

      .cls-1, .cls-2, .cls-6, .cls-7, .cls-8, .cls-9, .cls-11, .cls-13, .cls-14 {
        fill: none;
      }

      .cls-1, .cls-10 {
        stroke-width: 1.5px;
      }

      .cls-15, .cls-12 {
        fill: #00a79d;
      }

      .cls-16 {
        fill: #ffd100;
      }

      .cls-17 {
        fill: #067974;
      }

      .cls-18 {
        fill: #4aa39c;
      }

      .cls-2 {
        stroke-width: .33px;
      }

      .cls-2, .cls-6, .cls-13, .cls-14 {
        stroke-linecap: round;
      }

      .cls-3, .cls-4, .cls-5, .cls-10 {
        fill: #fff;
      }

      .cls-3, .cls-11 {
        stroke-width: 1.77px;
      }

      .cls-19 {
        fill: #707071;
        font-family: BrandonText-Black, 'Brandon Text';
        font-size: 9.68px;
        font-weight: 800;
      }

      .cls-4 {
        stroke-miterlimit: 10;
      }

      .cls-6, .cls-8 {
        stroke-width: 2px;
      }

      .cls-7 {
        stroke-dasharray: 0 1.83;
      }

      .cls-12 {
        stroke-width: .75px;
      }

      .cls-13 {
        stroke-width: .35px;
      }

      .cls-14 {
        stroke-width: .35px;
      }
    </style>
  </defs>
  <g id="Layer_2-2" data-name="Layer 2">
    <path class="cls-16" d="m178.99,331.25c-82.5,0-149.6-67.1-149.6-149.6S96.49,32.05,178.99,32.05s149.6,67.1,149.6,149.6-67.2,149.6-149.6,149.6h0Zm0-273.5c-68.3,0-123.8,55.6-123.8,123.9s55.6,123.9,123.8,123.9,123.9-55.6,123.9-123.9-55.6-123.9-123.9-123.9Z"/>
    <g>
      <circle class="cls-4" cx="236.45" cy="303.94" r="45"/>
      <path class="cls-5" d="m236.35,258.94c24.9,0,45,20.2,45,45s-20.1,45-45,45-45-20.1-45-45,20.2-45,45-45m0-1.7c-25.7,0-46.6,20.9-46.6,46.6s20.9,46.6,46.6,46.6,46.6-20.9,46.6-46.6-20.9-46.6-46.6-46.6h0Z"/>
    </g>
    <g>
      <circle class="cls-5" cx="178.99" cy="47.1" r="45"/>
      <g>
        <circle class="cls-4" cx="178.99" cy="47.1" r="45"/>
        <path class="cls-5" d="m178.99,2.1c24.9,0,45,20.1,45,45s-20.1,45-45,45-45-20.1-45-45S154.09,2.1,178.99,2.1m0-1.6c-25.7,0-46.6,20.9-46.6,46.6s20.9,46.6,46.6,46.6,46.6-20.9,46.6-46.6S204.69.5,178.99.5h0Z"/>
      </g>
    </g>
    <g>
      <circle class="cls-5" cx="47.1" cy="209.68" r="45"/>
      <g>
        <circle class="cls-4" cx="47.1" cy="209.68" r="45"/>
        <path class="cls-5" d="m47.1,164.68c24.9,0,45,20.1,45,45s-20.1,45-45,45S2.1,234.58,2.1,209.68s20.1-45,45-45m0-1.6c-25.7,0-46.6,20.9-46.6,46.6s20.9,46.6,46.6,46.6,46.6-20.9,46.6-46.6-20.9-46.6-46.6-46.6h0Z"/>
      </g>
    </g>
    <g>
      <circle class="cls-5" cx="74.2" cy="97" r="45"/>
      <g>
        <circle class="cls-4" cx="74.2" cy="97" r="45"/>
        <path class="cls-5" d="m74.2,52c24.9,0,45,20.1,45,45s-20.1,45-45,45-45-20.1-45-45,20.1-45,45-45m0-1.6c-25.7,0-46.6,20.9-46.6,46.6s20.9,46.6,46.6,46.6,46.6-20.9,46.6-46.6-20.9-46.6-46.6-46.6h0Z"/>
      </g>
    </g>
    <g>
      <path class="cls-5" d="m356.04,212c0,24.9-20.1,45-45,45s-45-20.2-45-45,20.1-45,45-45,45,20.2,45,45h0Z"/>
      <path class="cls-5" d="m311.04,167c24.9,0,45,20.2,45,45s-20.1,45-45,45-45-20.2-45-45,20.1-45,45-45m0-1.6c-25.7,0-46.6,20.9-46.6,46.6s20.9,46.6,46.6,46.6,46.6-20.9,46.6-46.6-20.9-46.6-46.6-46.6h0Z"/>
    </g>
    <g>
      <circle class="cls-4" cx="120.11" cy="302.62" r="45"/>
      <path class="cls-5" d="m120.01,257.62c24.9,0,45,20.1,45,45s-20.1,45-45,45-45-20.2-45-45,20.2-45,45-45m0-1.7c-25.7,0-46.6,20.9-46.6,46.6s20.9,46.6,46.6,46.6,46.6-20.9,46.6-46.6-20.9-46.6-46.6-46.6h0Z"/>
    </g>
    <g>
      <path class="cls-5" d="m329.89,98.48c0,24.9-20.1,45-45,45s-45-20.1-45-45,20.1-45,45-45,45,20.1,45,45Z"/>
      <path class="cls-5" d="m284.89,53.48c24.9,0,45,20.1,45,45s-20.1,45-45,45-45-20.1-45-45,20.1-45,45-45m0-1.6c-25.7,0-46.6,20.9-46.6,46.6s20.9,46.6,46.6,46.6,46.6-20.9,46.6-46.6-20.9-46.6-46.6-46.6h0Z"/>
    </g>
    <g>
      <path class="cls-8" d="m217.6,283.85c-3,0-5.4,1.7-5.4,3.7v26c0,2,2.4,3.7,5.4,3.7h37.7c3,0,5.4-1.7,5.4-3.7v-26c0-2-2.4-3.7-5.4-3.7h-37.7Z"/>
      <rect class="cls-9" x="230.8" y="317.45" width="13.4" height="5.1"/>
      <path class="cls-1" d="m252.2,327.25h-29.7c-1.3,0-2.3-1-2.3-2.3h0c0-1.3,1.1-2.3,2.3-2.3h29.7c1.3,0,2.3,1,2.3,2.3h0c0,1.3-1.1,2.3-2.3,2.3Z"/>
    </g>
    <g>
      <path class="cls-15" d="m216,288.48h-.2s-.04-.02-.04-.04v-.13s0-.02.01-.03l.27-.21s.04-.02.07-.02h.15s.04.02.04.04v1.32s-.02.04-.04.04h-.23s-.04-.02-.04-.04v-.93Z"/>
      <path class="cls-15" d="m216.61,288.75c0-.45.19-.72.53-.72s.53.27.53.72-.19.72-.53.72-.53-.27-.53-.72Zm.74,0c0-.27-.09-.43-.21-.43s-.21.16-.21.43.09.43.21.43.21-.16.21-.43Z"/>
      <path class="cls-15" d="m217.91,288.75c0-.45.19-.72.53-.72s.53.27.53.72-.19.72-.53.72-.53-.27-.53-.72Zm.74,0c0-.27-.09-.43-.21-.43s-.21.16-.21.43.09.43.21.43.21-.16.21-.43Z"/>
      <path class="cls-15" d="m219.2,288.75c0-.45.19-.72.53-.72s.53.27.53.72-.19.72-.53.72-.53-.27-.53-.72Zm.74,0c0-.27-.09-.43-.21-.43s-.21.16-.21.43.09.43.21.43.21-.16.21-.43Z"/>
      <path class="cls-15" d="m220.68,288.48h-.2s-.04-.02-.04-.04v-.13s0-.02.01-.03l.27-.21s.04-.02.07-.02h.15s.04.02.04.04v1.32s-.02.04-.04.04h-.23s-.04-.02-.04-.04v-.93Z"/>
      <path class="cls-15" d="m221.48,288.48h-.2s-.04-.02-.04-.04v-.13s0-.02.01-.03l.27-.21s.04-.02.07-.02h.15s.04.02.04.04v1.32s-.02.04-.04.04h-.23s-.04-.02-.04-.04v-.93Z"/>
      <path class="cls-15" d="m222.27,288.48h-.2s-.04-.02-.04-.04v-.13s0-.02.01-.03l.27-.21s.04-.02.07-.02h.15s.04.02.04.04v1.32s-.02.04-.04.04h-.23s-.04-.02-.04-.04v-.93Z"/>
      <path class="cls-15" d="m222.89,288.75c0-.45.19-.72.53-.72s.53.27.53.72-.19.72-.53.72-.53-.27-.53-.72Zm.74,0c0-.27-.09-.43-.21-.43s-.21.16-.21.43.09.43.21.43.21-.16.21-.43Z"/>
      <path class="cls-15" d="m224.18,288.75c0-.45.19-.72.53-.72s.53.27.53.72-.19.72-.53.72-.53-.27-.53-.72Zm.74,0c0-.27-.09-.43-.21-.43s-.21.16-.21.43.09.43.21.43.21-.16.21-.43Z"/>
      <path class="cls-15" d="m225.47,288.75c0-.45.19-.72.53-.72s.53.27.53.72-.19.72-.53.72-.53-.27-.53-.72Zm.74,0c0-.27-.09-.43-.21-.43s-.21.16-.21.43.09.43.21.43.21-.16.21-.43Z"/>
      <path class="cls-15" d="m226.95,288.48h-.2s-.04-.02-.04-.04v-.13s0-.02.01-.03l.27-.21s.04-.02.07-.02h.15s.04.02.04.04v1.32s-.02.04-.04.04h-.23s-.04-.02-.04-.04v-.93Z"/>
      <path class="cls-15" d="m227.56,288.75c0-.45.19-.72.53-.72s.53.27.53.72-.19.72-.53.72-.53-.27-.53-.72Zm.74,0c0-.27-.09-.43-.21-.43s-.21.16-.21.43.09.43.21.43.21-.16.21-.43Z"/>
      <path class="cls-15" d="m229.04,288.48h-.2s-.04-.02-.04-.04v-.13s0-.02.01-.03l.27-.21s.04-.02.07-.02h.15s.04.02.04.04v1.32s-.02.04-.04.04h-.23s-.04-.02-.04-.04v-.93Z"/>
      <path class="cls-15" d="m229.65,288.75c0-.45.19-.72.53-.72s.53.27.53.72-.19.72-.53.72-.53-.27-.53-.72Zm.74,0c0-.27-.09-.43-.21-.43s-.21.16-.21.43.09.43.21.43.21-.16.21-.43Z"/>
      <path class="cls-15" d="m231.13,288.48h-.2s-.04-.02-.04-.04v-.13s0-.02.01-.03l.27-.21s.04-.02.07-.02h.15s.04.02.04.04v1.32s-.02.04-.04.04h-.23s-.04-.02-.04-.04v-.93Z"/>
      <path class="cls-15" d="m231.74,288.75c0-.45.19-.72.53-.72s.53.27.53.72-.19.72-.53.72-.53-.27-.53-.72Zm.74,0c0-.27-.09-.43-.21-.43s-.21.16-.21.43.09.43.21.43.21-.16.21-.43Z"/>
      <path class="cls-15" d="m233.22,288.48h-.2s-.04-.02-.04-.04v-.13s0-.02.01-.03l.27-.21s.04-.02.07-.02h.15s.04.02.04.04v1.32s-.02.04-.04.04h-.23s-.04-.02-.04-.04v-.93Z"/>
      <path class="cls-15" d="m233.83,288.75c0-.45.19-.72.53-.72s.53.27.53.72-.19.72-.53.72-.53-.27-.53-.72Zm.74,0c0-.27-.09-.43-.21-.43s-.21.16-.21.43.09.43.21.43.21-.16.21-.43Z"/>
      <path class="cls-15" d="m235.31,288.48h-.2s-.04-.02-.04-.04v-.13s0-.02.01-.03l.27-.21s.04-.02.07-.02h.15s.04.02.04.04v1.32s-.02.04-.04.04h-.23s-.04-.02-.04-.04v-.93Z"/>
      <path class="cls-15" d="m235.92,288.75c0-.45.19-.72.53-.72s.53.27.53.72-.19.72-.53.72-.53-.27-.53-.72Zm.74,0c0-.27-.09-.43-.21-.43s-.21.16-.21.43.09.43.21.43.21-.16.21-.43Z"/>
      <path class="cls-15" d="m237.4,288.48h-.2s-.04-.02-.04-.04v-.13s0-.02.01-.03l.27-.21s.04-.02.07-.02h.15s.04.02.04.04v1.32s-.02.04-.04.04h-.23s-.04-.02-.04-.04v-.93Z"/>
      <path class="cls-15" d="m238.01,288.75c0-.45.19-.72.53-.72s.53.27.53.72-.19.72-.53.72-.53-.27-.53-.72Zm.74,0c0-.27-.09-.43-.21-.43s-.21.16-.21.43.09.43.21.43.21-.16.21-.43Z"/>
      <path class="cls-15" d="m239.31,288.75c0-.45.19-.72.53-.72s.53.27.53.72-.19.72-.53.72-.53-.27-.53-.72Zm.74,0c0-.27-.09-.43-.21-.43s-.21.16-.21.43.09.43.21.43.21-.16.21-.43Z"/>
      <path class="cls-15" d="m240.79,288.48h-.2s-.04-.02-.04-.04v-.13s0-.02.01-.03l.27-.21s.04-.02.07-.02h.15s.04.02.04.04v1.32s-.02.04-.04.04h-.23s-.04-.02-.04-.04v-.93Z"/>
      <path class="cls-15" d="m241.4,288.75c0-.45.19-.72.53-.72s.53.27.53.72-.19.72-.53.72-.53-.27-.53-.72Zm.74,0c0-.27-.09-.43-.21-.43s-.21.16-.21.43.09.43.21.43.21-.16.21-.43Z"/>
      <path class="cls-15" d="m242.88,288.48h-.2s-.04-.02-.04-.04v-.13s0-.02.01-.03l.27-.21s.04-.02.07-.02h.15s.04.02.04.04v1.32s-.02.04-.04.04h-.23s-.04-.02-.04-.04v-.93Z"/>
      <path class="cls-15" d="m243.49,288.75c0-.45.19-.72.53-.72s.53.27.53.72-.19.72-.53.72-.53-.27-.53-.72Zm.74,0c0-.27-.09-.43-.21-.43s-.21.16-.21.43.09.43.21.43.21-.16.21-.43Z"/>
      <path class="cls-15" d="m244.97,288.48h-.2s-.04-.02-.04-.04v-.13s0-.02.01-.03l.27-.21s.04-.02.07-.02h.15s.04.02.04.04v1.32s-.02.04-.04.04h-.23s-.04-.02-.04-.04v-.93Z"/>
      <path class="cls-15" d="m245.58,288.75c0-.45.19-.72.53-.72s.53.27.53.72-.19.72-.53.72-.53-.27-.53-.72Zm.74,0c0-.27-.09-.43-.21-.43s-.21.16-.21.43.09.43.21.43.21-.16.21-.43Z"/>
      <path class="cls-15" d="m247.06,288.48h-.2s-.04-.02-.04-.04v-.13s0-.02.01-.03l.27-.21s.04-.02.07-.02h.15s.04.02.04.04v1.32s-.02.04-.04.04h-.23s-.04-.02-.04-.04v-.93Z"/>
      <path class="cls-15" d="m247.67,288.75c0-.45.19-.72.53-.72s.53.27.53.72-.19.72-.53.72-.53-.27-.53-.72Zm.74,0c0-.27-.09-.43-.21-.43s-.21.16-.21.43.09.43.21.43.21-.16.21-.43Z"/>
      <path class="cls-15" d="m249.15,288.48h-.2s-.04-.02-.04-.04v-.13s0-.02.01-.03l.27-.21s.04-.02.07-.02h.15s.04.02.04.04v1.32s-.02.04-.04.04h-.23s-.04-.02-.04-.04v-.93Z"/>
      <path class="cls-15" d="m249.76,288.75c0-.45.19-.72.53-.72s.53.27.53.72-.19.72-.53.72-.53-.27-.53-.72Zm.74,0c0-.27-.09-.43-.21-.43s-.21.16-.21.43.09.43.21.43.21-.16.21-.43Z"/>
      <path class="cls-15" d="m251.05,288.75c0-.45.19-.72.53-.72s.53.27.53.72-.19.72-.53.72-.53-.27-.53-.72Zm.74,0c0-.27-.09-.43-.21-.43s-.21.16-.21.43.09.43.21.43.21-.16.21-.43Z"/>
      <path class="cls-15" d="m252.53,288.48h-.2s-.04-.02-.04-.04v-.13s0-.02.01-.03l.27-.21s.04-.02.07-.02h.15s.04.02.04.04v1.32s-.02.04-.04.04h-.23s-.04-.02-.04-.04v-.93Z"/>
      <path class="cls-15" d="m253.14,288.75c0-.45.19-.72.53-.72s.53.27.53.72-.19.72-.53.72-.53-.27-.53-.72Zm.74,0c0-.27-.09-.43-.21-.43s-.21.16-.21.43.09.43.21.43.21-.16.21-.43Z"/>
      <path class="cls-15" d="m254.62,288.48h-.2s-.04-.02-.04-.04v-.13s0-.02.01-.03l.27-.21s.04-.02.07-.02h.15s.04.02.04.04v1.32s-.02.04-.04.04h-.23s-.04-.02-.04-.04v-.93Z"/>
      <path class="cls-15" d="m255.23,288.75c0-.45.19-.72.53-.72s.53.27.53.72-.19.72-.53.72-.53-.27-.53-.72Zm.74,0c0-.27-.09-.43-.21-.43s-.21.16-.21.43.09.43.21.43.21-.16.21-.43Z"/>
      <path class="cls-15" d="m256.71,288.48h-.2s-.04-.02-.04-.04v-.13s0-.02.01-.03l.27-.21s.04-.02.07-.02h.15s.04.02.04.04v1.32s-.02.04-.04.04h-.23s-.04-.02-.04-.04v-.93Z"/>
      <path class="cls-15" d="m215.82,291.15c0-.45.19-.72.53-.72s.53.27.53.72-.19.72-.53.72-.53-.27-.53-.72Zm.74,0c0-.27-.09-.43-.21-.43s-.21.16-.21.43.09.43.21.43.21-.16.21-.43Z"/>
      <path class="cls-15" d="m217.3,290.88h-.2s-.04-.02-.04-.04v-.13s0-.02.01-.03l.27-.21s.04-.02.07-.02h.15s.04.02.04.04v1.32s-.02.04-.04.04h-.23s-.04-.02-.04-.04v-.93Z"/>
      <path class="cls-15" d="m217.91,291.15c0-.45.19-.72.53-.72s.53.27.53.72-.19.72-.53.72-.53-.27-.53-.72Zm.74,0c0-.27-.09-.43-.21-.43s-.21.16-.21.43.09.43.21.43.21-.16.21-.43Z"/>
      <path class="cls-15" d="m219.39,290.88h-.2s-.04-.02-.04-.04v-.13s0-.02.01-.03l.27-.21s.04-.02.07-.02h.15s.04.02.04.04v1.32s-.02.04-.04.04h-.23s-.04-.02-.04-.04v-.93Z"/>
      <path class="cls-15" d="m220,291.15c0-.45.19-.72.53-.72s.53.27.53.72-.19.72-.53.72-.53-.27-.53-.72Zm.74,0c0-.27-.09-.43-.21-.43s-.21.16-.21.43.09.43.21.43.21-.16.21-.43Z"/>
      <path class="cls-15" d="m221.48,290.88h-.2s-.04-.02-.04-.04v-.13s0-.02.01-.03l.27-.21s.04-.02.07-.02h.15s.04.02.04.04v1.32s-.02.04-.04.04h-.23s-.04-.02-.04-.04v-.93Z"/>
      <path class="cls-15" d="m222.09,291.15c0-.45.19-.72.53-.72s.53.27.53.72-.19.72-.53.72-.53-.27-.53-.72Zm.74,0c0-.27-.09-.43-.21-.43s-.21.16-.21.43.09.43.21.43.21-.16.21-.43Z"/>
      <path class="cls-15" d="m223.57,290.88h-.2s-.04-.02-.04-.04v-.13s0-.02.01-.03l.27-.21s.04-.02.07-.02h.15s.04.02.04.04v1.32s-.02.04-.04.04h-.23s-.04-.02-.04-.04v-.93Z"/>
      <path class="cls-15" d="m224.18,291.15c0-.45.19-.72.53-.72s.53.27.53.72-.19.72-.53.72-.53-.27-.53-.72Zm.74,0c0-.27-.09-.43-.21-.43s-.21.16-.21.43.09.43.21.43.21-.16.21-.43Z"/>
      <path class="cls-15" d="m225.47,291.15c0-.45.19-.72.53-.72s.53.27.53.72-.19.72-.53.72-.53-.27-.53-.72Zm.74,0c0-.27-.09-.43-.21-.43s-.21.16-.21.43.09.43.21.43.21-.16.21-.43Z"/>
      <path class="cls-15" d="m226.95,290.88h-.2s-.04-.02-.04-.04v-.13s0-.02.01-.03l.27-.21s.04-.02.07-.02h.15s.04.02.04.04v1.32s-.02.04-.04.04h-.23s-.04-.02-.04-.04v-.93Z"/>
      <path class="cls-15" d="m227.56,291.15c0-.45.19-.72.53-.72s.53.27.53.72-.19.72-.53.72-.53-.27-.53-.72Zm.74,0c0-.27-.09-.43-.21-.43s-.21.16-.21.43.09.43.21.43.21-.16.21-.43Z"/>
      <path class="cls-15" d="m229.04,290.88h-.2s-.04-.02-.04-.04v-.13s0-.02.01-.03l.27-.21s.04-.02.07-.02h.15s.04.02.04.04v1.32s-.02.04-.04.04h-.23s-.04-.02-.04-.04v-.93Z"/>
      <path class="cls-15" d="m229.65,291.15c0-.45.19-.72.53-.72s.53.27.53.72-.19.72-.53.72-.53-.27-.53-.72Zm.74,0c0-.27-.09-.43-.21-.43s-.21.16-.21.43.09.43.21.43.21-.16.21-.43Z"/>
      <path class="cls-15" d="m231.13,290.88h-.2s-.04-.02-.04-.04v-.13s0-.02.01-.03l.27-.21s.04-.02.07-.02h.15s.04.02.04.04v1.32s-.02.04-.04.04h-.23s-.04-.02-.04-.04v-.93Z"/>
      <path class="cls-15" d="m231.74,291.15c0-.45.19-.72.53-.72s.53.27.53.72-.19.72-.53.72-.53-.27-.53-.72Zm.74,0c0-.27-.09-.43-.21-.43s-.21.16-.21.43.09.43.21.43.21-.16.21-.43Z"/>
      <path class="cls-15" d="m233.22,290.88h-.2s-.04-.02-.04-.04v-.13s0-.02.01-.03l.27-.21s.04-.02.07-.02h.15s.04.02.04.04v1.32s-.02.04-.04.04h-.23s-.04-.02-.04-.04v-.93Z"/>
      <path class="cls-15" d="m233.83,291.15c0-.45.19-.72.53-.72s.53.27.53.72-.19.72-.53.72-.53-.27-.53-.72Zm.74,0c0-.27-.09-.43-.21-.43s-.21.16-.21.43.09.43.21.43.21-.16.21-.43Z"/>
      <path class="cls-15" d="m235.31,290.88h-.2s-.04-.02-.04-.04v-.13s0-.02.01-.03l.27-.21s.04-.02.07-.02h.15s.04.02.04.04v1.32s-.02.04-.04.04h-.23s-.04-.02-.04-.04v-.93Z"/>
      <path class="cls-15" d="m235.92,291.15c0-.45.19-.72.53-.72s.53.27.53.72-.19.72-.53.72-.53-.27-.53-.72Zm.74,0c0-.27-.09-.43-.21-.43s-.21.16-.21.43.09.43.21.43.21-.16.21-.43Z"/>
      <path class="cls-15" d="m237.4,290.88h-.2s-.04-.02-.04-.04v-.13s0-.02.01-.03l.27-.21s.04-.02.07-.02h.15s.04.02.04.04v1.32s-.02.04-.04.04h-.23s-.04-.02-.04-.04v-.93Z"/>
      <path class="cls-15" d="m238.01,291.15c0-.45.19-.72.53-.72s.53.27.53.72-.19.72-.53.72-.53-.27-.53-.72Zm.74,0c0-.27-.09-.43-.21-.43s-.21.16-.21.43.09.43.21.43.21-.16.21-.43Z"/>
      <path class="cls-15" d="m239.49,290.88h-.2s-.04-.02-.04-.04v-.13s0-.02.01-.03l.27-.21s.04-.02.07-.02h.15s.04.02.04.04v1.32s-.02.04-.04.04h-.23s-.04-.02-.04-.04v-.93Z"/>
      <path class="cls-15" d="m240.1,291.15c0-.45.19-.72.53-.72s.53.27.53.72-.19.72-.53.72-.53-.27-.53-.72Zm.74,0c0-.27-.09-.43-.21-.43s-.21.16-.21.43.09.43.21.43.21-.16.21-.43Z"/>
      <path class="cls-15" d="m241.58,290.88h-.2s-.04-.02-.04-.04v-.13s0-.02.01-.03l.27-.21s.04-.02.07-.02h.15s.04.02.04.04v1.32s-.02.04-.04.04h-.23s-.04-.02-.04-.04v-.93Z"/>
      <path class="cls-15" d="m242.19,291.15c0-.45.19-.72.53-.72s.53.27.53.72-.19.72-.53.72-.53-.27-.53-.72Zm.74,0c0-.27-.09-.43-.21-.43s-.21.16-.21.43.09.43.21.43.21-.16.21-.43Z"/>
      <path class="cls-15" d="m243.49,291.15c0-.45.19-.72.53-.72s.53.27.53.72-.19.72-.53.72-.53-.27-.53-.72Zm.74,0c0-.27-.09-.43-.21-.43s-.21.16-.21.43.09.43.21.43.21-.16.21-.43Z"/>
      <path class="cls-15" d="m244.97,290.88h-.2s-.04-.02-.04-.04v-.13s0-.02.01-.03l.27-.21s.04-.02.07-.02h.15s.04.02.04.04v1.32s-.02.04-.04.04h-.23s-.04-.02-.04-.04v-.93Z"/>
      <path class="cls-15" d="m245.58,291.15c0-.45.19-.72.53-.72s.53.27.53.72-.19.72-.53.72-.53-.27-.53-.72Zm.74,0c0-.27-.09-.43-.21-.43s-.21.16-.21.43.09.43.21.43.21-.16.21-.43Z"/>
      <path class="cls-15" d="m247.06,290.88h-.2s-.04-.02-.04-.04v-.13s0-.02.01-.03l.27-.21s.04-.02.07-.02h.15s.04.02.04.04v1.32s-.02.04-.04.04h-.23s-.04-.02-.04-.04v-.93Z"/>
      <path class="cls-15" d="m247.67,291.15c0-.45.19-.72.53-.72s.53.27.53.72-.19.72-.53.72-.53-.27-.53-.72Zm.74,0c0-.27-.09-.43-.21-.43s-.21.16-.21.43.09.43.21.43.21-.16.21-.43Z"/>
      <path class="cls-15" d="m249.15,290.88h-.2s-.04-.02-.04-.04v-.13s0-.02.01-.03l.27-.21s.04-.02.07-.02h.15s.04.02.04.04v1.32s-.02.04-.04.04h-.23s-.04-.02-.04-.04v-.93Z"/>
      <path class="cls-15" d="m249.76,291.15c0-.45.19-.72.53-.72s.53.27.53.72-.19.72-.53.72-.53-.27-.53-.72Zm.74,0c0-.27-.09-.43-.21-.43s-.21.16-.21.43.09.43.21.43.21-.16.21-.43Z"/>
      <path class="cls-15" d="m251.24,290.88h-.2s-.04-.02-.04-.04v-.13s0-.02.01-.03l.27-.21s.04-.02.07-.02h.15s.04.02.04.04v1.32s-.02.04-.04.04h-.23s-.04-.02-.04-.04v-.93Z"/>
      <path class="cls-15" d="m251.85,291.15c0-.45.19-.72.53-.72s.53.27.53.72-.19.72-.53.72-.53-.27-.53-.72Zm.74,0c0-.27-.09-.43-.21-.43s-.21.16-.21.43.09.43.21.43.21-.16.21-.43Z"/>
      <path class="cls-15" d="m253.33,290.88h-.2s-.04-.02-.04-.04v-.13s0-.02.01-.03l.27-.21s.04-.02.07-.02h.15s.04.02.04.04v1.32s-.02.04-.04.04h-.23s-.04-.02-.04-.04v-.93Z"/>
      <path class="cls-15" d="m253.94,291.15c0-.45.19-.72.53-.72s.53.27.53.72-.19.72-.53.72-.53-.27-.53-.72Zm.74,0c0-.27-.09-.43-.21-.43s-.21.16-.21.43.09.43.21.43.21-.16.21-.43Z"/>
      <path class="cls-15" d="m255.42,290.88h-.2s-.04-.02-.04-.04v-.13s0-.02.01-.03l.27-.21s.04-.02.07-.02h.15s.04.02.04.04v1.32s-.02.04-.04.04h-.23s-.04-.02-.04-.04v-.93Z"/>
      <path class="cls-15" d="m256.03,291.15c0-.45.19-.72.53-.72s.53.27.53.72-.19.72-.53.72-.53-.27-.53-.72Zm.74,0c0-.27-.09-.43-.21-.43s-.21.16-.21.43.09.43.21.43.21-.16.21-.43Z"/>
      <path class="cls-15" d="m215.82,293.55c0-.45.19-.72.53-.72s.53.27.53.72-.19.72-.53.72-.53-.27-.53-.72Zm.74,0c0-.27-.09-.43-.21-.43s-.21.16-.21.43.09.43.21.43.21-.16.21-.43Z"/>
      <path class="cls-15" d="m217.11,293.55c0-.45.19-.72.53-.72s.53.27.53.72-.19.72-.53.72-.53-.27-.53-.72Zm.74,0c0-.27-.09-.43-.21-.43s-.21.16-.21.43.09.43.21.43.21-.16.21-.43Z"/>
      <path class="cls-15" d="m218.59,293.28h-.2s-.04-.02-.04-.04v-.13s0-.02.01-.03l.27-.21s.04-.02.07-.02h.15s.04.02.04.04v1.32s-.02.04-.04.04h-.23s-.04-.02-.04-.04v-.93Z"/>
      <path class="cls-15" d="m219.39,293.28h-.2s-.04-.02-.04-.04v-.13s0-.02.01-.03l.27-.21s.04-.02.07-.02h.15s.04.02.04.04v1.32s-.02.04-.04.04h-.23s-.04-.02-.04-.04v-.93Z"/>
      <path class="cls-15" d="m220.18,293.28h-.2s-.04-.02-.04-.04v-.13s0-.02.01-.03l.27-.21s.04-.02.07-.02h.15s.04.02.04.04v1.32s-.02.04-.04.04h-.23s-.04-.02-.04-.04v-.93Z"/>
      <path class="cls-15" d="m220.79,293.55c0-.45.19-.72.53-.72s.53.27.53.72-.19.72-.53.72-.53-.27-.53-.72Zm.74,0c0-.27-.09-.43-.21-.43s-.21.16-.21.43.09.43.21.43.21-.16.21-.43Z"/>
      <path class="cls-15" d="m222.09,293.55c0-.45.19-.72.53-.72s.53.27.53.72-.19.72-.53.72-.53-.27-.53-.72Zm.74,0c0-.27-.09-.43-.21-.43s-.21.16-.21.43.09.43.21.43.21-.16.21-.43Z"/>
      <path class="cls-15" d="m223.38,293.55c0-.45.19-.72.53-.72s.53.27.53.72-.19.72-.53.72-.53-.27-.53-.72Zm.74,0c0-.27-.09-.43-.21-.43s-.21.16-.21.43.09.43.21.43.21-.16.21-.43Z"/>
      <path class="cls-15" d="m224.86,293.28h-.2s-.04-.02-.04-.04v-.13s0-.02.01-.03l.27-.21s.04-.02.07-.02h.15s.04.02.04.04v1.32s-.02.04-.04.04h-.23s-.04-.02-.04-.04v-.93Z"/>
      <path class="cls-15" d="m225.47,293.55c0-.45.19-.72.53-.72s.53.27.53.72-.19.72-.53.72-.53-.27-.53-.72Zm.74,0c0-.27-.09-.43-.21-.43s-.21.16-.21.43.09.43.21.43.21-.16.21-.43Z"/>
      <path class="cls-15" d="m226.95,293.28h-.2s-.04-.02-.04-.04v-.13s0-.02.01-.03l.27-.21s.04-.02.07-.02h.15s.04.02.04.04v1.32s-.02.04-.04.04h-.23s-.04-.02-.04-.04v-.93Z"/>
      <path class="cls-15" d="m227.56,293.55c0-.45.19-.72.53-.72s.53.27.53.72-.19.72-.53.72-.53-.27-.53-.72Zm.74,0c0-.27-.09-.43-.21-.43s-.21.16-.21.43.09.43.21.43.21-.16.21-.43Z"/>
      <path class="cls-15" d="m229.04,293.28h-.2s-.04-.02-.04-.04v-.13s0-.02.01-.03l.27-.21s.04-.02.07-.02h.15s.04.02.04.04v1.32s-.02.04-.04.04h-.23s-.04-.02-.04-.04v-.93Z"/>
      <path class="cls-15" d="m229.65,293.55c0-.45.19-.72.53-.72s.53.27.53.72-.19.72-.53.72-.53-.27-.53-.72Zm.74,0c0-.27-.09-.43-.21-.43s-.21.16-.21.43.09.43.21.43.21-.16.21-.43Z"/>
      <path class="cls-15" d="m231.13,293.28h-.2s-.04-.02-.04-.04v-.13s0-.02.01-.03l.27-.21s.04-.02.07-.02h.15s.04.02.04.04v1.32s-.02.04-.04.04h-.23s-.04-.02-.04-.04v-.93Z"/>
      <path class="cls-15" d="m231.74,293.55c0-.45.19-.72.53-.72s.53.27.53.72-.19.72-.53.72-.53-.27-.53-.72Zm.74,0c0-.27-.09-.43-.21-.43s-.21.16-.21.43.09.43.21.43.21-.16.21-.43Z"/>
      <path class="cls-15" d="m233.22,293.28h-.2s-.04-.02-.04-.04v-.13s0-.02.01-.03l.27-.21s.04-.02.07-.02h.15s.04.02.04.04v1.32s-.02.04-.04.04h-.23s-.04-.02-.04-.04v-.93Z"/>
      <path class="cls-15" d="m233.83,293.55c0-.45.19-.72.53-.72s.53.27.53.72-.19.72-.53.72-.53-.27-.53-.72Zm.74,0c0-.27-.09-.43-.21-.43s-.21.16-.21.43.09.43.21.43.21-.16.21-.43Z"/>
      <path class="cls-15" d="m235.31,293.28h-.2s-.04-.02-.04-.04v-.13s0-.02.01-.03l.27-.21s.04-.02.07-.02h.15s.04.02.04.04v1.32s-.02.04-.04.04h-.23s-.04-.02-.04-.04v-.93Z"/>
      <path class="cls-15" d="m235.92,293.55c0-.45.19-.72.53-.72s.53.27.53.72-.19.72-.53.72-.53-.27-.53-.72Zm.74,0c0-.27-.09-.43-.21-.43s-.21.16-.21.43.09.43.21.43.21-.16.21-.43Z"/>
      <path class="cls-15" d="m237.22,293.55c0-.45.19-.72.53-.72s.53.27.53.72-.19.72-.53.72-.53-.27-.53-.72Zm.74,0c0-.27-.09-.43-.21-.43s-.21.16-.21.43.09.43.21.43.21-.16.21-.43Z"/>
      <path class="cls-15" d="m238.7,293.28h-.2s-.04-.02-.04-.04v-.13s0-.02.01-.03l.27-.21s.04-.02.07-.02h.15s.04.02.04.04v1.32s-.02.04-.04.04h-.23s-.04-.02-.04-.04v-.93Z"/>
      <path class="cls-15" d="m239.31,293.55c0-.45.19-.72.53-.72s.53.27.53.72-.19.72-.53.72-.53-.27-.53-.72Zm.74,0c0-.27-.09-.43-.21-.43s-.21.16-.21.43.09.43.21.43.21-.16.21-.43Z"/>
      <path class="cls-15" d="m240.79,293.28h-.2s-.04-.02-.04-.04v-.13s0-.02.01-.03l.27-.21s.04-.02.07-.02h.15s.04.02.04.04v1.32s-.02.04-.04.04h-.23s-.04-.02-.04-.04v-.93Z"/>
      <path class="cls-15" d="m241.4,293.55c0-.45.19-.72.53-.72s.53.27.53.72-.19.72-.53.72-.53-.27-.53-.72Zm.74,0c0-.27-.09-.43-.21-.43s-.21.16-.21.43.09.43.21.43.21-.16.21-.43Z"/>
      <path class="cls-15" d="m242.88,293.28h-.2s-.04-.02-.04-.04v-.13s0-.02.01-.03l.27-.21s.04-.02.07-.02h.15s.04.02.04.04v1.32s-.02.04-.04.04h-.23s-.04-.02-.04-.04v-.93Z"/>
      <path class="cls-15" d="m243.49,293.55c0-.45.19-.72.53-.72s.53.27.53.72-.19.72-.53.72-.53-.27-.53-.72Zm.74,0c0-.27-.09-.43-.21-.43s-.21.16-.21.43.09.43.21.43.21-.16.21-.43Z"/>
      <path class="cls-15" d="m244.97,293.28h-.2s-.04-.02-.04-.04v-.13s0-.02.01-.03l.27-.21s.04-.02.07-.02h.15s.04.02.04.04v1.32s-.02.04-.04.04h-.23s-.04-.02-.04-.04v-.93Z"/>
      <path class="cls-15" d="m245.58,293.55c0-.45.19-.72.53-.72s.53.27.53.72-.19.72-.53.72-.53-.27-.53-.72Zm.74,0c0-.27-.09-.43-.21-.43s-.21.16-.21.43.09.43.21.43.21-.16.21-.43Z"/>
      <path class="cls-15" d="m247.06,293.28h-.2s-.04-.02-.04-.04v-.13s0-.02.01-.03l.27-.21s.04-.02.07-.02h.15s.04.02.04.04v1.32s-.02.04-.04.04h-.23s-.04-.02-.04-.04v-.93Z"/>
      <path class="cls-15" d="m247.67,293.55c0-.45.19-.72.53-.72s.53.27.53.72-.19.72-.53.72-.53-.27-.53-.72Zm.74,0c0-.27-.09-.43-.21-.43s-.21.16-.21.43.09.43.21.43.21-.16.21-.43Z"/>
      <path class="cls-15" d="m248.96,293.55c0-.45.19-.72.53-.72s.53.27.53.72-.19.72-.53.72-.53-.27-.53-.72Zm.74,0c0-.27-.09-.43-.21-.43s-.21.16-.21.43.09.43.21.43.21-.16.21-.43Z"/>
      <path class="cls-15" d="m250.44,293.28h-.2s-.04-.02-.04-.04v-.13s0-.02.01-.03l.27-.21s.04-.02.07-.02h.15s.04.02.04.04v1.32s-.02.04-.04.04h-.23s-.04-.02-.04-.04v-.93Z"/>
      <path class="cls-15" d="m251.05,293.55c0-.45.19-.72.53-.72s.53.27.53.72-.19.72-.53.72-.53-.27-.53-.72Zm.74,0c0-.27-.09-.43-.21-.43s-.21.16-.21.43.09.43.21.43.21-.16.21-.43Z"/>
      <path class="cls-15" d="m252.53,293.28h-.2s-.04-.02-.04-.04v-.13s0-.02.01-.03l.27-.21s.04-.02.07-.02h.15s.04.02.04.04v1.32s-.02.04-.04.04h-.23s-.04-.02-.04-.04v-.93Z"/>
      <path class="cls-15" d="m253.14,293.55c0-.45.19-.72.53-.72s.53.27.53.72-.19.72-.53.72-.53-.27-.53-.72Zm.74,0c0-.27-.09-.43-.21-.43s-.21.16-.21.43.09.43.21.43.21-.16.21-.43Z"/>
      <path class="cls-15" d="m254.62,293.28h-.2s-.04-.02-.04-.04v-.13s0-.02.01-.03l.27-.21s.04-.02.07-.02h.15s.04.02.04.04v1.32s-.02.04-.04.04h-.23s-.04-.02-.04-.04v-.93Z"/>
      <path class="cls-15" d="m255.23,293.55c0-.45.19-.72.53-.72s.53.27.53.72-.19.72-.53.72-.53-.27-.53-.72Zm.74,0c0-.27-.09-.43-.21-.43s-.21.16-.21.43.09.43.21.43.21-.16.21-.43Z"/>
      <path class="cls-15" d="m256.71,293.28h-.2s-.04-.02-.04-.04v-.13s0-.02.01-.03l.27-.21s.04-.02.07-.02h.15s.04.02.04.04v1.32s-.02.04-.04.04h-.23s-.04-.02-.04-.04v-.93Z"/>
      <path class="cls-15" d="m215.82,295.95c0-.45.19-.72.53-.72s.53.27.53.72-.19.72-.53.72-.53-.27-.53-.72Zm.74,0c0-.27-.09-.43-.21-.43s-.21.16-.21.43.09.43.21.43.21-.16.21-.43Z"/>
      <path class="cls-15" d="m217.28,295.68h-.2s-.04-.02-.04-.04v-.13s0-.02.01-.03l.27-.21s.04-.02.07-.02h.15s.04.02.04.04v1.32s-.02.04-.04.04h-.23s-.04-.02-.04-.04v-.93Z"/>
      <path class="cls-15" d="m217.88,295.95c0-.45.19-.72.53-.72s.53.27.53.72-.19.72-.53.72-.53-.27-.53-.72Zm.74,0c0-.27-.09-.43-.21-.43s-.21.16-.21.43.09.43.21.43.21-.16.21-.43Z"/>
      <path class="cls-15" d="m219.34,295.68h-.2s-.04-.02-.04-.04v-.13s0-.02.01-.03l.27-.21s.04-.02.07-.02h.15s.04.02.04.04v1.32s-.02.04-.04.04h-.23s-.04-.02-.04-.04v-.93Z"/>
      <path class="cls-15" d="m219.94,295.95c0-.45.19-.72.53-.72s.53.27.53.72-.19.72-.53.72-.53-.27-.53-.72Zm.74,0c0-.27-.09-.43-.21-.43s-.21.16-.21.43.09.43.21.43.21-.16.21-.43Z"/>
      <path class="cls-15" d="m221.4,295.68h-.2s-.04-.02-.04-.04v-.13s0-.02.01-.03l.27-.21s.04-.02.07-.02h.15s.04.02.04.04v1.32s-.02.04-.04.04h-.23s-.04-.02-.04-.04v-.93Z"/>
      <path class="cls-15" d="m222,295.95c0-.45.19-.72.53-.72s.53.27.53.72-.19.72-.53.72-.53-.27-.53-.72Zm.74,0c0-.27-.09-.43-.21-.43s-.21.16-.21.43.09.43.21.43.21-.16.21-.43Z"/>
      <path class="cls-15" d="m223.28,295.95c0-.45.19-.72.53-.72s.53.27.53.72-.19.72-.53.72-.53-.27-.53-.72Zm.74,0c0-.27-.09-.43-.21-.43s-.21.16-.21.43.09.43.21.43.21-.16.21-.43Z"/>
      <path class="cls-15" d="m224.74,295.68h-.2s-.04-.02-.04-.04v-.13s0-.02.01-.03l.27-.21s.04-.02.07-.02h.15s.04.02.04.04v1.32s-.02.04-.04.04h-.23s-.04-.02-.04-.04v-.93Z"/>
      <path class="cls-15" d="m225.34,295.95c0-.45.19-.72.53-.72s.53.27.53.72-.19.72-.53.72-.53-.27-.53-.72Zm.74,0c0-.27-.09-.43-.21-.43s-.21.16-.21.43.09.43.21.43.21-.16.21-.43Z"/>
      <path class="cls-15" d="m226.8,295.68h-.2s-.04-.02-.04-.04v-.13s0-.02.01-.03l.27-.21s.04-.02.07-.02h.15s.04.02.04.04v1.32s-.02.04-.04.04h-.23s-.04-.02-.04-.04v-.93Z"/>
      <path class="cls-15" d="m227.4,295.95c0-.45.19-.72.53-.72s.53.27.53.72-.19.72-.53.72-.53-.27-.53-.72Zm.74,0c0-.27-.09-.43-.21-.43s-.21.16-.21.43.09.43.21.43.21-.16.21-.43Z"/>
      <path class="cls-15" d="m228.86,295.68h-.2s-.04-.02-.04-.04v-.13s0-.02.01-.03l.27-.21s.04-.02.07-.02h.15s.04.02.04.04v1.32s-.02.04-.04.04h-.23s-.04-.02-.04-.04v-.93Z"/>
      <path class="cls-15" d="m229.46,295.95c0-.45.19-.72.53-.72s.53.27.53.72-.19.72-.53.72-.53-.27-.53-.72Zm.74,0c0-.27-.09-.43-.21-.43s-.21.16-.21.43.09.43.21.43.21-.16.21-.43Z"/>
      <path class="cls-15" d="m230.92,295.68h-.2s-.04-.02-.04-.04v-.13s0-.02.01-.03l.27-.21s.04-.02.07-.02h.15s.04.02.04.04v1.32s-.02.04-.04.04h-.23s-.04-.02-.04-.04v-.93Z"/>
      <path class="cls-15" d="m231.52,295.95c0-.45.19-.72.53-.72s.53.27.53.72-.19.72-.53.72-.53-.27-.53-.72Zm.74,0c0-.27-.09-.43-.21-.43s-.21.16-.21.43.09.43.21.43.21-.16.21-.43Z"/>
      <path class="cls-15" d="m232.98,295.68h-.2s-.04-.02-.04-.04v-.13s0-.02.01-.03l.27-.21s.04-.02.07-.02h.15s.04.02.04.04v1.32s-.02.04-.04.04h-.23s-.04-.02-.04-.04v-.93Z"/>
      <path class="cls-15" d="m233.58,295.95c0-.45.19-.72.53-.72s.53.27.53.72-.19.72-.53.72-.53-.27-.53-.72Zm.74,0c0-.27-.09-.43-.21-.43s-.21.16-.21.43.09.43.21.43.21-.16.21-.43Z"/>
      <path class="cls-15" d="m235.04,295.68h-.2s-.04-.02-.04-.04v-.13s0-.02.01-.03l.27-.21s.04-.02.07-.02h.15s.04.02.04.04v1.32s-.02.04-.04.04h-.23s-.04-.02-.04-.04v-.93Z"/>
      <path class="cls-15" d="m235.64,295.95c0-.45.19-.72.53-.72s.53.27.53.72-.19.72-.53.72-.53-.27-.53-.72Zm.74,0c0-.27-.09-.43-.21-.43s-.21.16-.21.43.09.43.21.43.21-.16.21-.43Z"/>
      <path class="cls-15" d="m237.1,295.68h-.2s-.04-.02-.04-.04v-.13s0-.02.01-.03l.27-.21s.04-.02.07-.02h.15s.04.02.04.04v1.32s-.02.04-.04.04h-.23s-.04-.02-.04-.04v-.93Z"/>
      <path class="cls-15" d="m237.7,295.95c0-.45.19-.72.53-.72s.53.27.53.72-.19.72-.53.72-.53-.27-.53-.72Zm.74,0c0-.27-.09-.43-.21-.43s-.21.16-.21.43.09.43.21.43.21-.16.21-.43Z"/>
      <path class="cls-15" d="m239.17,295.68h-.2s-.04-.02-.04-.04v-.13s0-.02.01-.03l.27-.21s.04-.02.07-.02h.15s.04.02.04.04v1.32s-.02.04-.04.04h-.23s-.04-.02-.04-.04v-.93Z"/>
      <path class="cls-15" d="m239.76,295.95c0-.45.19-.72.53-.72s.53.27.53.72-.19.72-.53.72-.53-.27-.53-.72Zm.74,0c0-.27-.09-.43-.21-.43s-.21.16-.21.43.09.43.21.43.21-.16.21-.43Z"/>
      <path class="cls-15" d="m241.04,295.95c0-.45.19-.72.53-.72s.53.27.53.72-.19.72-.53.72-.53-.27-.53-.72Zm.74,0c0-.27-.09-.43-.21-.43s-.21.16-.21.43.09.43.21.43.21-.16.21-.43Z"/>
      <path class="cls-15" d="m242.5,295.68h-.2s-.04-.02-.04-.04v-.13s0-.02.01-.03l.27-.21s.04-.02.07-.02h.15s.04.02.04.04v1.32s-.02.04-.04.04h-.23s-.04-.02-.04-.04v-.93Z"/>
      <path class="cls-15" d="m243.1,295.95c0-.45.19-.72.53-.72s.53.27.53.72-.19.72-.53.72-.53-.27-.53-.72Zm.74,0c0-.27-.09-.43-.21-.43s-.21.16-.21.43.09.43.21.43.21-.16.21-.43Z"/>
      <path class="cls-15" d="m244.56,295.68h-.2s-.04-.02-.04-.04v-.13s0-.02.01-.03l.27-.21s.04-.02.07-.02h.15s.04.02.04.04v1.32s-.02.04-.04.04h-.23s-.04-.02-.04-.04v-.93Z"/>
      <path class="cls-15" d="m245.16,295.95c0-.45.19-.72.53-.72s.53.27.53.72-.19.72-.53.72-.53-.27-.53-.72Zm.74,0c0-.27-.09-.43-.21-.43s-.21.16-.21.43.09.43.21.43.21-.16.21-.43Z"/>
      <path class="cls-15" d="m246.62,295.68h-.2s-.04-.02-.04-.04v-.13s0-.02.01-.03l.27-.21s.04-.02.07-.02h.15s.04.02.04.04v1.32s-.02.04-.04.04h-.23s-.04-.02-.04-.04v-.93Z"/>
      <path class="cls-15" d="m247.22,295.95c0-.45.19-.72.53-.72s.53.27.53.72-.19.72-.53.72-.53-.27-.53-.72Zm.74,0c0-.27-.09-.43-.21-.43s-.21.16-.21.43.09.43.21.43.21-.16.21-.43Z"/>
      <path class="cls-15" d="m248.69,295.68h-.2s-.04-.02-.04-.04v-.13s0-.02.01-.03l.27-.21s.04-.02.07-.02h.15s.04.02.04.04v1.32s-.02.04-.04.04h-.23s-.04-.02-.04-.04v-.93Z"/>
      <path class="cls-15" d="m249.28,295.95c0-.45.19-.72.53-.72s.53.27.53.72-.19.72-.53.72-.53-.27-.53-.72Zm.74,0c0-.27-.09-.43-.21-.43s-.21.16-.21.43.09.43.21.43.21-.16.21-.43Z"/>
      <path class="cls-15" d="m250.75,295.68h-.2s-.04-.02-.04-.04v-.13s0-.02.01-.03l.27-.21s.04-.02.07-.02h.15s.04.02.04.04v1.32s-.02.04-.04.04h-.23s-.04-.02-.04-.04v-.93Z"/>
      <path class="cls-15" d="m251.34,295.95c0-.45.19-.72.53-.72s.53.27.53.72-.19.72-.53.72-.53-.27-.53-.72Zm.74,0c0-.27-.09-.43-.21-.43s-.21.16-.21.43.09.43.21.43.21-.16.21-.43Z"/>
      <path class="cls-15" d="m252.81,295.68h-.2s-.04-.02-.04-.04v-.13s0-.02.01-.03l.27-.21s.04-.02.07-.02h.15s.04.02.04.04v1.32s-.02.04-.04.04h-.23s-.04-.02-.04-.04v-.93Z"/>
      <path class="cls-15" d="m253.4,295.95c0-.45.19-.72.53-.72s.53.27.53.72-.19.72-.53.72-.53-.27-.53-.72Zm.74,0c0-.27-.09-.43-.21-.43s-.21.16-.21.43.09.43.21.43.21-.16.21-.43Z"/>
      <path class="cls-15" d="m254.68,295.95c0-.45.19-.72.53-.72s.53.27.53.72-.19.72-.53.72-.53-.27-.53-.72Zm.74,0c0-.27-.09-.43-.21-.43s-.21.16-.21.43.09.43.21.43.21-.16.21-.43Z"/>
      <path class="cls-15" d="m255.96,295.95c0-.45.19-.72.53-.72s.53.27.53.72-.19.72-.53.72-.53-.27-.53-.72Zm.74,0c0-.27-.09-.43-.21-.43s-.21.16-.21.43.09.43.21.43.21-.16.21-.43Z"/>
      <path class="cls-15" d="m216,298.08h-.2s-.04-.02-.04-.04v-.13s0-.02.01-.03l.27-.21s.04-.02.07-.02h.15s.04.02.04.04v1.32s-.02.04-.04.04h-.23s-.04-.02-.04-.04v-.93Z"/>
      <path class="cls-15" d="m216.81,298.08h-.2s-.04-.02-.04-.04v-.13s0-.02.01-.03l.27-.21s.04-.02.07-.02h.15s.04.02.04.04v1.32s-.02.04-.04.04h-.23s-.04-.02-.04-.04v-.93Z"/>
      <path class="cls-15" d="m217.62,298.08h-.2s-.04-.02-.04-.04v-.13s0-.02.01-.03l.27-.21s.04-.02.07-.02h.15s.04.02.04.04v1.32s-.02.04-.04.04h-.23s-.04-.02-.04-.04v-.93Z"/>
      <path class="cls-15" d="m218.25,298.35c0-.45.19-.72.53-.72s.53.27.53.72-.19.72-.53.72-.53-.27-.53-.72Zm.74,0c0-.27-.09-.43-.21-.43s-.21.16-.21.43.09.43.21.43.21-.16.21-.43Z"/>
      <path class="cls-15" d="m219.55,298.35c0-.45.19-.72.53-.72s.53.27.53.72-.19.72-.53.72-.53-.27-.53-.72Zm.74,0c0-.27-.09-.43-.21-.43s-.21.16-.21.43.09.43.21.43.21-.16.21-.43Z"/>
      <path class="cls-15" d="m220.86,298.35c0-.45.19-.72.53-.72s.53.27.53.72-.19.72-.53.72-.53-.27-.53-.72Zm.74,0c0-.27-.09-.43-.21-.43s-.21.16-.21.43.09.43.21.43.21-.16.21-.43Z"/>
      <path class="cls-15" d="m222.35,298.08h-.2s-.04-.02-.04-.04v-.13s0-.02.01-.03l.27-.21s.04-.02.07-.02h.15s.04.02.04.04v1.32s-.02.04-.04.04h-.23s-.04-.02-.04-.04v-.93Z"/>
      <path class="cls-15" d="m222.98,298.35c0-.45.19-.72.53-.72s.53.27.53.72-.19.72-.53.72-.53-.27-.53-.72Zm.74,0c0-.27-.09-.43-.21-.43s-.21.16-.21.43.09.43.21.43.21-.16.21-.43Z"/>
      <path class="cls-15" d="m224.47,298.08h-.2s-.04-.02-.04-.04v-.13s0-.02.01-.03l.27-.21s.04-.02.07-.02h.15s.04.02.04.04v1.32s-.02.04-.04.04h-.23s-.04-.02-.04-.04v-.93Z"/>
      <path class="cls-15" d="m225.09,298.35c0-.45.19-.72.53-.72s.53.27.53.72-.19.72-.53.72-.53-.27-.53-.72Zm.74,0c0-.27-.09-.43-.21-.43s-.21.16-.21.43.09.43.21.43.21-.16.21-.43Z"/>
      <path class="cls-15" d="m226.58,298.08h-.2s-.04-.02-.04-.04v-.13s0-.02.01-.03l.27-.21s.04-.02.07-.02h.15s.04.02.04.04v1.32s-.02.04-.04.04h-.23s-.04-.02-.04-.04v-.93Z"/>
      <path class="cls-15" d="m227.21,298.35c0-.45.19-.72.53-.72s.53.27.53.72-.19.72-.53.72-.53-.27-.53-.72Zm.74,0c0-.27-.09-.43-.21-.43s-.21.16-.21.43.09.43.21.43.21-.16.21-.43Z"/>
      <path class="cls-15" d="m228.7,298.08h-.2s-.04-.02-.04-.04v-.13s0-.02.01-.03l.27-.21s.04-.02.07-.02h.15s.04.02.04.04v1.32s-.02.04-.04.04h-.23s-.04-.02-.04-.04v-.93Z"/>
      <path class="cls-15" d="m229.33,298.35c0-.45.19-.72.53-.72s.53.27.53.72-.19.72-.53.72-.53-.27-.53-.72Zm.74,0c0-.27-.09-.43-.21-.43s-.21.16-.21.43.09.43.21.43.21-.16.21-.43Z"/>
      <path class="cls-15" d="m230.82,298.08h-.2s-.04-.02-.04-.04v-.13s0-.02.01-.03l.27-.21s.04-.02.07-.02h.15s.04.02.04.04v1.32s-.02.04-.04.04h-.23s-.04-.02-.04-.04v-.93Z"/>
      <path class="cls-15" d="m231.44,298.35c0-.45.19-.72.53-.72s.53.27.53.72-.19.72-.53.72-.53-.27-.53-.72Zm.74,0c0-.27-.09-.43-.21-.43s-.21.16-.21.43.09.43.21.43.21-.16.21-.43Z"/>
      <path class="cls-15" d="m232.93,298.08h-.2s-.04-.02-.04-.04v-.13s0-.02.01-.03l.27-.21s.04-.02.07-.02h.15s.04.02.04.04v1.32s-.02.04-.04.04h-.23s-.04-.02-.04-.04v-.93Z"/>
      <path class="cls-15" d="m233.56,298.35c0-.45.19-.72.53-.72s.53.27.53.72-.19.72-.53.72-.53-.27-.53-.72Zm.74,0c0-.27-.09-.43-.21-.43s-.21.16-.21.43.09.43.21.43.21-.16.21-.43Z"/>
      <path class="cls-15" d="m234.87,298.35c0-.45.19-.72.53-.72s.53.27.53.72-.19.72-.53.72-.53-.27-.53-.72Zm.74,0c0-.27-.09-.43-.21-.43s-.21.16-.21.43.09.43.21.43.21-.16.21-.43Z"/>
      <path class="cls-15" d="m236.36,298.08h-.2s-.04-.02-.04-.04v-.13s0-.02.01-.03l.27-.21s.04-.02.07-.02h.15s.04.02.04.04v1.32s-.02.04-.04.04h-.23s-.04-.02-.04-.04v-.93Z"/>
      <path class="cls-15" d="m236.98,298.35c0-.45.19-.72.53-.72s.53.27.53.72-.19.72-.53.72-.53-.27-.53-.72Zm.74,0c0-.27-.09-.43-.21-.43s-.21.16-.21.43.09.43.21.43.21-.16.21-.43Z"/>
      <path class="cls-15" d="m238.47,298.08h-.2s-.04-.02-.04-.04v-.13s0-.02.01-.03l.27-.21s.04-.02.07-.02h.15s.04.02.04.04v1.32s-.02.04-.04.04h-.23s-.04-.02-.04-.04v-.93Z"/>
      <path class="cls-15" d="m239.1,298.35c0-.45.19-.72.53-.72s.53.27.53.72-.19.72-.53.72-.53-.27-.53-.72Zm.74,0c0-.27-.09-.43-.21-.43s-.21.16-.21.43.09.43.21.43.21-.16.21-.43Z"/>
      <path class="cls-15" d="m240.59,298.08h-.2s-.04-.02-.04-.04v-.13s0-.02.01-.03l.27-.21s.04-.02.07-.02h.15s.04.02.04.04v1.32s-.02.04-.04.04h-.23s-.04-.02-.04-.04v-.93Z"/>
      <path class="cls-15" d="m241.21,298.35c0-.45.19-.72.53-.72s.53.27.53.72-.19.72-.53.72-.53-.27-.53-.72Zm.74,0c0-.27-.09-.43-.21-.43s-.21.16-.21.43.09.43.21.43.21-.16.21-.43Z"/>
      <path class="cls-15" d="m242.71,298.08h-.2s-.04-.02-.04-.04v-.13s0-.02.01-.03l.27-.21s.04-.02.07-.02h.15s.04.02.04.04v1.32s-.02.04-.04.04h-.23s-.04-.02-.04-.04v-.93Z"/>
      <path class="cls-15" d="m243.33,298.35c0-.45.19-.72.53-.72s.53.27.53.72-.19.72-.53.72-.53-.27-.53-.72Zm.74,0c0-.27-.09-.43-.21-.43s-.21.16-.21.43.09.43.21.43.21-.16.21-.43Z"/>
      <path class="cls-15" d="m244.82,298.08h-.2s-.04-.02-.04-.04v-.13s0-.02.01-.03l.27-.21s.04-.02.07-.02h.15s.04.02.04.04v1.32s-.02.04-.04.04h-.23s-.04-.02-.04-.04v-.93Z"/>
      <path class="cls-15" d="m245.45,298.35c0-.45.19-.72.53-.72s.53.27.53.72-.19.72-.53.72-.53-.27-.53-.72Zm.74,0c0-.27-.09-.43-.21-.43s-.21.16-.21.43.09.43.21.43.21-.16.21-.43Z"/>
      <path class="cls-15" d="m246.75,298.35c0-.45.19-.72.53-.72s.53.27.53.72-.19.72-.53.72-.53-.27-.53-.72Zm.74,0c0-.27-.09-.43-.21-.43s-.21.16-.21.43.09.43.21.43.21-.16.21-.43Z"/>
      <path class="cls-15" d="m248.25,298.08h-.2s-.04-.02-.04-.04v-.13s0-.02.01-.03l.27-.21s.04-.02.07-.02h.15s.04.02.04.04v1.32s-.02.04-.04.04h-.23s-.04-.02-.04-.04v-.93Z"/>
      <path class="cls-15" d="m248.87,298.35c0-.45.19-.72.53-.72s.53.27.53.72-.19.72-.53.72-.53-.27-.53-.72Zm.74,0c0-.27-.09-.43-.21-.43s-.21.16-.21.43.09.43.21.43.21-.16.21-.43Z"/>
      <path class="cls-15" d="m250.36,298.08h-.2s-.04-.02-.04-.04v-.13s0-.02.01-.03l.27-.21s.04-.02.07-.02h.15s.04.02.04.04v1.32s-.02.04-.04.04h-.23s-.04-.02-.04-.04v-.93Z"/>
      <path class="cls-15" d="m250.99,298.35c0-.45.19-.72.53-.72s.53.27.53.72-.19.72-.53.72-.53-.27-.53-.72Zm.74,0c0-.27-.09-.43-.21-.43s-.21.16-.21.43.09.43.21.43.21-.16.21-.43Z"/>
      <path class="cls-15" d="m252.48,298.08h-.2s-.04-.02-.04-.04v-.13s0-.02.01-.03l.27-.21s.04-.02.07-.02h.15s.04.02.04.04v1.32s-.02.04-.04.04h-.23s-.04-.02-.04-.04v-.93Z"/>
      <path class="cls-15" d="m253.1,298.35c0-.45.19-.72.53-.72s.53.27.53.72-.19.72-.53.72-.53-.27-.53-.72Zm.74,0c0-.27-.09-.43-.21-.43s-.21.16-.21.43.09.43.21.43.21-.16.21-.43Z"/>
      <path class="cls-15" d="m254.59,298.08h-.2s-.04-.02-.04-.04v-.13s0-.02.01-.03l.27-.21s.04-.02.07-.02h.15s.04.02.04.04v1.32s-.02.04-.04.04h-.23s-.04-.02-.04-.04v-.93Z"/>
      <path class="cls-15" d="m255.22,298.35c0-.45.19-.72.53-.72s.53.27.53.72-.19.72-.53.72-.53-.27-.53-.72Zm.74,0c0-.27-.09-.43-.21-.43s-.21.16-.21.43.09.43.21.43.21-.16.21-.43Z"/>
      <path class="cls-15" d="m256.71,298.08h-.2s-.04-.02-.04-.04v-.13s0-.02.01-.03l.27-.21s.04-.02.07-.02h.15s.04.02.04.04v1.32s-.02.04-.04.04h-.23s-.04-.02-.04-.04v-.93Z"/>
      <path class="cls-15" d="m215.82,300.75c0-.45.19-.72.53-.72s.53.27.53.72-.19.72-.53.72-.53-.27-.53-.72Zm.74,0c0-.27-.09-.43-.21-.43s-.21.16-.21.43.09.43.21.43.21-.16.21-.43Z"/>
      <path class="cls-15" d="m217.3,300.48h-.2s-.04-.02-.04-.04v-.13s0-.02.01-.03l.27-.21s.04-.02.07-.02h.15s.04.02.04.04v1.32s-.02.04-.04.04h-.23s-.04-.02-.04-.04v-.93Z"/>
      <path class="cls-15" d="m217.91,300.75c0-.45.19-.72.53-.72s.53.27.53.72-.19.72-.53.72-.53-.27-.53-.72Zm.74,0c0-.27-.09-.43-.21-.43s-.21.16-.21.43.09.43.21.43.21-.16.21-.43Z"/>
      <path class="cls-15" d="m219.39,300.48h-.2s-.04-.02-.04-.04v-.13s0-.02.01-.03l.27-.21s.04-.02.07-.02h.15s.04.02.04.04v1.32s-.02.04-.04.04h-.23s-.04-.02-.04-.04v-.93Z"/>
      <path class="cls-15" d="m220,300.75c0-.45.19-.72.53-.72s.53.27.53.72-.19.72-.53.72-.53-.27-.53-.72Zm.74,0c0-.27-.09-.43-.21-.43s-.21.16-.21.43.09.43.21.43.21-.16.21-.43Z"/>
      <path class="cls-15" d="m221.29,300.75c0-.45.19-.72.53-.72s.53.27.53.72-.19.72-.53.72-.53-.27-.53-.72Zm.74,0c0-.27-.09-.43-.21-.43s-.21.16-.21.43.09.43.21.43.21-.16.21-.43Z"/>
      <path class="cls-15" d="m222.77,300.48h-.2s-.04-.02-.04-.04v-.13s0-.02.01-.03l.27-.21s.04-.02.07-.02h.15s.04.02.04.04v1.32s-.02.04-.04.04h-.23s-.04-.02-.04-.04v-.93Z"/>
      <path class="cls-15" d="m223.38,300.75c0-.45.19-.72.53-.72s.53.27.53.72-.19.72-.53.72-.53-.27-.53-.72Zm.74,0c0-.27-.09-.43-.21-.43s-.21.16-.21.43.09.43.21.43.21-.16.21-.43Z"/>
      <path class="cls-15" d="m224.86,300.48h-.2s-.04-.02-.04-.04v-.13s0-.02.01-.03l.27-.21s.04-.02.07-.02h.15s.04.02.04.04v1.32s-.02.04-.04.04h-.23s-.04-.02-.04-.04v-.93Z"/>
      <path class="cls-15" d="m225.47,300.75c0-.45.19-.72.53-.72s.53.27.53.72-.19.72-.53.72-.53-.27-.53-.72Zm.74,0c0-.27-.09-.43-.21-.43s-.21.16-.21.43.09.43.21.43.21-.16.21-.43Z"/>
      <path class="cls-15" d="m226.95,300.48h-.2s-.04-.02-.04-.04v-.13s0-.02.01-.03l.27-.21s.04-.02.07-.02h.15s.04.02.04.04v1.32s-.02.04-.04.04h-.23s-.04-.02-.04-.04v-.93Z"/>
      <path class="cls-15" d="m227.56,300.75c0-.45.19-.72.53-.72s.53.27.53.72-.19.72-.53.72-.53-.27-.53-.72Zm.74,0c0-.27-.09-.43-.21-.43s-.21.16-.21.43.09.43.21.43.21-.16.21-.43Z"/>
      <path class="cls-15" d="m229.04,300.48h-.2s-.04-.02-.04-.04v-.13s0-.02.01-.03l.27-.21s.04-.02.07-.02h.15s.04.02.04.04v1.32s-.02.04-.04.04h-.23s-.04-.02-.04-.04v-.93Z"/>
      <path class="cls-15" d="m229.65,300.75c0-.45.19-.72.53-.72s.53.27.53.72-.19.72-.53.72-.53-.27-.53-.72Zm.74,0c0-.27-.09-.43-.21-.43s-.21.16-.21.43.09.43.21.43.21-.16.21-.43Z"/>
      <path class="cls-15" d="m231.13,300.48h-.2s-.04-.02-.04-.04v-.13s0-.02.01-.03l.27-.21s.04-.02.07-.02h.15s.04.02.04.04v1.32s-.02.04-.04.04h-.23s-.04-.02-.04-.04v-.93Z"/>
      <path class="cls-15" d="m231.74,300.75c0-.45.19-.72.53-.72s.53.27.53.72-.19.72-.53.72-.53-.27-.53-.72Zm.74,0c0-.27-.09-.43-.21-.43s-.21.16-.21.43.09.43.21.43.21-.16.21-.43Z"/>
      <path class="cls-15" d="m233.22,300.48h-.2s-.04-.02-.04-.04v-.13s0-.02.01-.03l.27-.21s.04-.02.07-.02h.15s.04.02.04.04v1.32s-.02.04-.04.04h-.23s-.04-.02-.04-.04v-.93Z"/>
      <path class="cls-15" d="m233.83,300.75c0-.45.19-.72.53-.72s.53.27.53.72-.19.72-.53.72-.53-.27-.53-.72Zm.74,0c0-.27-.09-.43-.21-.43s-.21.16-.21.43.09.43.21.43.21-.16.21-.43Z"/>
      <path class="cls-15" d="m235.31,300.48h-.2s-.04-.02-.04-.04v-.13s0-.02.01-.03l.27-.21s.04-.02.07-.02h.15s.04.02.04.04v1.32s-.02.04-.04.04h-.23s-.04-.02-.04-.04v-.93Z"/>
      <path class="cls-15" d="m235.92,300.75c0-.45.19-.72.53-.72s.53.27.53.72-.19.72-.53.72-.53-.27-.53-.72Zm.74,0c0-.27-.09-.43-.21-.43s-.21.16-.21.43.09.43.21.43.21-.16.21-.43Z"/>
      <path class="cls-15" d="m237.4,300.48h-.2s-.04-.02-.04-.04v-.13s0-.02.01-.03l.27-.21s.04-.02.07-.02h.15s.04.02.04.04v1.32s-.02.04-.04.04h-.23s-.04-.02-.04-.04v-.93Z"/>
      <path class="cls-15" d="m238.01,300.75c0-.45.19-.72.53-.72s.53.27.53.72-.19.72-.53.72-.53-.27-.53-.72Zm.74,0c0-.27-.09-.43-.21-.43s-.21.16-.21.43.09.43.21.43.21-.16.21-.43Z"/>
      <path class="cls-15" d="m239.31,300.75c0-.45.19-.72.53-.72s.53.27.53.72-.19.72-.53.72-.53-.27-.53-.72Zm.74,0c0-.27-.09-.43-.21-.43s-.21.16-.21.43.09.43.21.43.21-.16.21-.43Z"/>
      <path class="cls-15" d="m240.79,300.48h-.2s-.04-.02-.04-.04v-.13s0-.02.01-.03l.27-.21s.04-.02.07-.02h.15s.04.02.04.04v1.32s-.02.04-.04.04h-.23s-.04-.02-.04-.04v-.93Z"/>
      <path class="cls-15" d="m241.4,300.75c0-.45.19-.72.53-.72s.53.27.53.72-.19.72-.53.72-.53-.27-.53-.72Zm.74,0c0-.27-.09-.43-.21-.43s-.21.16-.21.43.09.43.21.43.21-.16.21-.43Z"/>
      <path class="cls-15" d="m242.88,300.48h-.2s-.04-.02-.04-.04v-.13s0-.02.01-.03l.27-.21s.04-.02.07-.02h.15s.04.02.04.04v1.32s-.02.04-.04.04h-.23s-.04-.02-.04-.04v-.93Z"/>
      <path class="cls-15" d="m243.49,300.75c0-.45.19-.72.53-.72s.53.27.53.72-.19.72-.53.72-.53-.27-.53-.72Zm.74,0c0-.27-.09-.43-.21-.43s-.21.16-.21.43.09.43.21.43.21-.16.21-.43Z"/>
      <path class="cls-15" d="m244.97,300.48h-.2s-.04-.02-.04-.04v-.13s0-.02.01-.03l.27-.21s.04-.02.07-.02h.15s.04.02.04.04v1.32s-.02.04-.04.04h-.23s-.04-.02-.04-.04v-.93Z"/>
      <path class="cls-15" d="m245.58,300.75c0-.45.19-.72.53-.72s.53.27.53.72-.19.72-.53.72-.53-.27-.53-.72Zm.74,0c0-.27-.09-.43-.21-.43s-.21.16-.21.43.09.43.21.43.21-.16.21-.43Z"/>
      <path class="cls-15" d="m247.06,300.48h-.2s-.04-.02-.04-.04v-.13s0-.02.01-.03l.27-.21s.04-.02.07-.02h.15s.04.02.04.04v1.32s-.02.04-.04.04h-.23s-.04-.02-.04-.04v-.93Z"/>
      <path class="cls-15" d="m247.67,300.75c0-.45.19-.72.53-.72s.53.27.53.72-.19.72-.53.72-.53-.27-.53-.72Zm.74,0c0-.27-.09-.43-.21-.43s-.21.16-.21.43.09.43.21.43.21-.16.21-.43Z"/>
      <path class="cls-15" d="m249.15,300.48h-.2s-.04-.02-.04-.04v-.13s0-.02.01-.03l.27-.21s.04-.02.07-.02h.15s.04.02.04.04v1.32s-.02.04-.04.04h-.23s-.04-.02-.04-.04v-.93Z"/>
      <path class="cls-15" d="m249.76,300.75c0-.45.19-.72.53-.72s.53.27.53.72-.19.72-.53.72-.53-.27-.53-.72Zm.74,0c0-.27-.09-.43-.21-.43s-.21.16-.21.43.09.43.21.43.21-.16.21-.43Z"/>
      <path class="cls-15" d="m251.24,300.48h-.2s-.04-.02-.04-.04v-.13s0-.02.01-.03l.27-.21s.04-.02.07-.02h.15s.04.02.04.04v1.32s-.02.04-.04.04h-.23s-.04-.02-.04-.04v-.93Z"/>
      <path class="cls-15" d="m251.85,300.75c0-.45.19-.72.53-.72s.53.27.53.72-.19.72-.53.72-.53-.27-.53-.72Zm.74,0c0-.27-.09-.43-.21-.43s-.21.16-.21.43.09.43.21.43.21-.16.21-.43Z"/>
      <path class="cls-15" d="m253.14,300.75c0-.45.19-.72.53-.72s.53.27.53.72-.19.72-.53.72-.53-.27-.53-.72Zm.74,0c0-.27-.09-.43-.21-.43s-.21.16-.21.43.09.43.21.43.21-.16.21-.43Z"/>
      <path class="cls-15" d="m254.44,300.75c0-.45.19-.72.53-.72s.53.27.53.72-.19.72-.53.72-.53-.27-.53-.72Zm.74,0c0-.27-.09-.43-.21-.43s-.21.16-.21.43.09.43.21.43.21-.16.21-.43Z"/>
      <path class="cls-15" d="m255.91,300.48h-.2s-.04-.02-.04-.04v-.13s0-.02.01-.03l.27-.21s.04-.02.07-.02h.15s.04.02.04.04v1.32s-.02.04-.04.04h-.23s-.04-.02-.04-.04v-.93Z"/>
      <path class="cls-15" d="m256.71,300.48h-.2s-.04-.02-.04-.04v-.13s0-.02.01-.03l.27-.21s.04-.02.07-.02h.15s.04.02.04.04v1.32s-.02.04-.04.04h-.23s-.04-.02-.04-.04v-.93Z"/>
      <path class="cls-15" d="m216,302.88h-.2s-.04-.02-.04-.04v-.13s0-.02.01-.03l.27-.21s.04-.02.07-.02h.15s.04.02.04.04v1.32s-.02.04-.04.04h-.23s-.04-.02-.04-.04v-.93Z"/>
      <path class="cls-15" d="m216.61,303.15c0-.45.19-.72.53-.72s.53.27.53.72-.19.72-.53.72-.53-.27-.53-.72Zm.74,0c0-.27-.09-.43-.21-.43s-.21.16-.21.43.09.43.21.43.21-.16.21-.43Z"/>
      <path class="cls-15" d="m217.91,303.15c0-.45.19-.72.53-.72s.53.27.53.72-.19.72-.53.72-.53-.27-.53-.72Zm.74,0c0-.27-.09-.43-.21-.43s-.21.16-.21.43.09.43.21.43.21-.16.21-.43Z"/>
      <path class="cls-15" d="m219.2,303.15c0-.45.19-.72.53-.72s.53.27.53.72-.19.72-.53.72-.53-.27-.53-.72Zm.74,0c0-.27-.09-.43-.21-.43s-.21.16-.21.43.09.43.21.43.21-.16.21-.43Z"/>
      <path class="cls-15" d="m220.68,302.88h-.2s-.04-.02-.04-.04v-.13s0-.02.01-.03l.27-.21s.04-.02.07-.02h.15s.04.02.04.04v1.32s-.02.04-.04.04h-.23s-.04-.02-.04-.04v-.93Z"/>
      <path class="cls-15" d="m221.29,303.15c0-.45.19-.72.53-.72s.53.27.53.72-.19.72-.53.72-.53-.27-.53-.72Zm.74,0c0-.27-.09-.43-.21-.43s-.21.16-.21.43.09.43.21.43.21-.16.21-.43Z"/>
      <path class="cls-15" d="m222.77,302.88h-.2s-.04-.02-.04-.04v-.13s0-.02.01-.03l.27-.21s.04-.02.07-.02h.15s.04.02.04.04v1.32s-.02.04-.04.04h-.23s-.04-.02-.04-.04v-.93Z"/>
      <path class="cls-15" d="m223.38,303.15c0-.45.19-.72.53-.72s.53.27.53.72-.19.72-.53.72-.53-.27-.53-.72Zm.74,0c0-.27-.09-.43-.21-.43s-.21.16-.21.43.09.43.21.43.21-.16.21-.43Z"/>
      <path class="cls-15" d="m224.86,302.88h-.2s-.04-.02-.04-.04v-.13s0-.02.01-.03l.27-.21s.04-.02.07-.02h.15s.04.02.04.04v1.32s-.02.04-.04.04h-.23s-.04-.02-.04-.04v-.93Z"/>
      <path class="cls-15" d="m225.47,303.15c0-.45.19-.72.53-.72s.53.27.53.72-.19.72-.53.72-.53-.27-.53-.72Zm.74,0c0-.27-.09-.43-.21-.43s-.21.16-.21.43.09.43.21.43.21-.16.21-.43Z"/>
      <path class="cls-15" d="m226.95,302.88h-.2s-.04-.02-.04-.04v-.13s0-.02.01-.03l.27-.21s.04-.02.07-.02h.15s.04.02.04.04v1.32s-.02.04-.04.04h-.23s-.04-.02-.04-.04v-.93Z"/>
      <path class="cls-15" d="m227.56,303.15c0-.45.19-.72.53-.72s.53.27.53.72-.19.72-.53.72-.53-.27-.53-.72Zm.74,0c0-.27-.09-.43-.21-.43s-.21.16-.21.43.09.43.21.43.21-.16.21-.43Z"/>
      <path class="cls-15" d="m229.04,302.88h-.2s-.04-.02-.04-.04v-.13s0-.02.01-.03l.27-.21s.04-.02.07-.02h.15s.04.02.04.04v1.32s-.02.04-.04.04h-.23s-.04-.02-.04-.04v-.93Z"/>
      <path class="cls-15" d="m229.65,303.15c0-.45.19-.72.53-.72s.53.27.53.72-.19.72-.53.72-.53-.27-.53-.72Zm.74,0c0-.27-.09-.43-.21-.43s-.21.16-.21.43.09.43.21.43.21-.16.21-.43Z"/>
      <path class="cls-15" d="m231.13,302.88h-.2s-.04-.02-.04-.04v-.13s0-.02.01-.03l.27-.21s.04-.02.07-.02h.15s.04.02.04.04v1.32s-.02.04-.04.04h-.23s-.04-.02-.04-.04v-.93Z"/>
      <path class="cls-15" d="m231.74,303.15c0-.45.19-.72.53-.72s.53.27.53.72-.19.72-.53.72-.53-.27-.53-.72Zm.74,0c0-.27-.09-.43-.21-.43s-.21.16-.21.43.09.43.21.43.21-.16.21-.43Z"/>
      <path class="cls-15" d="m233.04,303.15c0-.45.19-.72.53-.72s.53.27.53.72-.19.72-.53.72-.53-.27-.53-.72Zm.74,0c0-.27-.09-.43-.21-.43s-.21.16-.21.43.09.43.21.43.21-.16.21-.43Z"/>
      <path class="cls-15" d="m234.51,302.88h-.2s-.04-.02-.04-.04v-.13s0-.02.01-.03l.27-.21s.04-.02.07-.02h.15s.04.02.04.04v1.32s-.02.04-.04.04h-.23s-.04-.02-.04-.04v-.93Z"/>
      <path class="cls-15" d="m235.13,303.15c0-.45.19-.72.53-.72s.53.27.53.72-.19.72-.53.72-.53-.27-.53-.72Zm.74,0c0-.27-.09-.43-.21-.43s-.21.16-.21.43.09.43.21.43.21-.16.21-.43Z"/>
      <path class="cls-15" d="m236.61,302.88h-.2s-.04-.02-.04-.04v-.13s0-.02.01-.03l.27-.21s.04-.02.07-.02h.15s.04.02.04.04v1.32s-.02.04-.04.04h-.23s-.04-.02-.04-.04v-.93Z"/>
      <path class="cls-15" d="m237.22,303.15c0-.45.19-.72.53-.72s.53.27.53.72-.19.72-.53.72-.53-.27-.53-.72Zm.74,0c0-.27-.09-.43-.21-.43s-.21.16-.21.43.09.43.21.43.21-.16.21-.43Z"/>
      <path class="cls-15" d="m238.7,302.88h-.2s-.04-.02-.04-.04v-.13s0-.02.01-.03l.27-.21s.04-.02.07-.02h.15s.04.02.04.04v1.32s-.02.04-.04.04h-.23s-.04-.02-.04-.04v-.93Z"/>
      <path class="cls-15" d="m239.31,303.15c0-.45.19-.72.53-.72s.53.27.53.72-.19.72-.53.72-.53-.27-.53-.72Zm.74,0c0-.27-.09-.43-.21-.43s-.21.16-.21.43.09.43.21.43.21-.16.21-.43Z"/>
      <path class="cls-15" d="m240.79,302.88h-.2s-.04-.02-.04-.04v-.13s0-.02.01-.03l.27-.21s.04-.02.07-.02h.15s.04.02.04.04v1.32s-.02.04-.04.04h-.23s-.04-.02-.04-.04v-.93Z"/>
      <path class="cls-15" d="m241.4,303.15c0-.45.19-.72.53-.72s.53.27.53.72-.19.72-.53.72-.53-.27-.53-.72Zm.74,0c0-.27-.09-.43-.21-.43s-.21.16-.21.43.09.43.21.43.21-.16.21-.43Z"/>
      <path class="cls-15" d="m242.88,302.88h-.2s-.04-.02-.04-.04v-.13s0-.02.01-.03l.27-.21s.04-.02.07-.02h.15s.04.02.04.04v1.32s-.02.04-.04.04h-.23s-.04-.02-.04-.04v-.93Z"/>
      <path class="cls-15" d="m243.49,303.15c0-.45.19-.72.53-.72s.53.27.53.72-.19.72-.53.72-.53-.27-.53-.72Zm.74,0c0-.27-.09-.43-.21-.43s-.21.16-.21.43.09.43.21.43.21-.16.21-.43Z"/>
      <path class="cls-15" d="m244.78,303.15c0-.45.19-.72.53-.72s.53.27.53.72-.19.72-.53.72-.53-.27-.53-.72Zm.74,0c0-.27-.09-.43-.21-.43s-.21.16-.21.43.09.43.21.43.21-.16.21-.43Z"/>
      <path class="cls-15" d="m246.26,302.88h-.2s-.04-.02-.04-.04v-.13s0-.02.01-.03l.27-.21s.04-.02.07-.02h.15s.04.02.04.04v1.32s-.02.04-.04.04h-.23s-.04-.02-.04-.04v-.93Z"/>
      <path class="cls-15" d="m246.87,303.15c0-.45.19-.72.53-.72s.53.27.53.72-.19.72-.53.72-.53-.27-.53-.72Zm.74,0c0-.27-.09-.43-.21-.43s-.21.16-.21.43.09.43.21.43.21-.16.21-.43Z"/>
      <path class="cls-15" d="m248.35,302.88h-.2s-.04-.02-.04-.04v-.13s0-.02.01-.03l.27-.21s.04-.02.07-.02h.15s.04.02.04.04v1.32s-.02.04-.04.04h-.23s-.04-.02-.04-.04v-.93Z"/>
      <path class="cls-15" d="m248.96,303.15c0-.45.19-.72.53-.72s.53.27.53.72-.19.72-.53.72-.53-.27-.53-.72Zm.74,0c0-.27-.09-.43-.21-.43s-.21.16-.21.43.09.43.21.43.21-.16.21-.43Z"/>
      <path class="cls-15" d="m250.44,302.88h-.2s-.04-.02-.04-.04v-.13s0-.02.01-.03l.27-.21s.04-.02.07-.02h.15s.04.02.04.04v1.32s-.02.04-.04.04h-.23s-.04-.02-.04-.04v-.93Z"/>
      <path class="cls-15" d="m251.05,303.15c0-.45.19-.72.53-.72s.53.27.53.72-.19.72-.53.72-.53-.27-.53-.72Zm.74,0c0-.27-.09-.43-.21-.43s-.21.16-.21.43.09.43.21.43.21-.16.21-.43Z"/>
      <path class="cls-15" d="m252.53,302.88h-.2s-.04-.02-.04-.04v-.13s0-.02.01-.03l.27-.21s.04-.02.07-.02h.15s.04.02.04.04v1.32s-.02.04-.04.04h-.23s-.04-.02-.04-.04v-.93Z"/>
      <path class="cls-15" d="m253.14,303.15c0-.45.19-.72.53-.72s.53.27.53.72-.19.72-.53.72-.53-.27-.53-.72Zm.74,0c0-.27-.09-.43-.21-.43s-.21.16-.21.43.09.43.21.43.21-.16.21-.43Z"/>
      <path class="cls-15" d="m254.62,302.88h-.2s-.04-.02-.04-.04v-.13s0-.02.01-.03l.27-.21s.04-.02.07-.02h.15s.04.02.04.04v1.32s-.02.04-.04.04h-.23s-.04-.02-.04-.04v-.93Z"/>
      <path class="cls-15" d="m255.23,303.15c0-.45.19-.72.53-.72s.53.27.53.72-.19.72-.53.72-.53-.27-.53-.72Zm.74,0c0-.27-.09-.43-.21-.43s-.21.16-.21.43.09.43.21.43.21-.16.21-.43Z"/>
      <path class="cls-15" d="m256.71,302.88h-.2s-.04-.02-.04-.04v-.13s0-.02.01-.03l.27-.21s.04-.02.07-.02h.15s.04.02.04.04v1.32s-.02.04-.04.04h-.23s-.04-.02-.04-.04v-.93Z"/>
      <path class="cls-15" d="m215.82,305.55c0-.45.19-.72.53-.72s.53.27.53.72-.19.72-.53.72-.53-.27-.53-.72Zm.74,0c0-.27-.09-.43-.21-.43s-.21.16-.21.43.09.43.21.43.21-.16.21-.43Z"/>
      <path class="cls-15" d="m217.3,305.28h-.2s-.04-.02-.04-.04v-.13s0-.02.01-.03l.27-.21s.04-.02.07-.02h.15s.04.02.04.04v1.32s-.02.04-.04.04h-.23s-.04-.02-.04-.04v-.93Z"/>
      <path class="cls-15" d="m217.91,305.55c0-.45.19-.72.53-.72s.53.27.53.72-.19.72-.53.72-.53-.27-.53-.72Zm.74,0c0-.27-.09-.43-.21-.43s-.21.16-.21.43.09.43.21.43.21-.16.21-.43Z"/>
      <path class="cls-15" d="m219.2,305.55c0-.45.19-.72.53-.72s.53.27.53.72-.19.72-.53.72-.53-.27-.53-.72Zm.74,0c0-.27-.09-.43-.21-.43s-.21.16-.21.43.09.43.21.43.21-.16.21-.43Z"/>
      <path class="cls-15" d="m220.68,305.28h-.2s-.04-.02-.04-.04v-.13s0-.02.01-.03l.27-.21s.04-.02.07-.02h.15s.04.02.04.04v1.32s-.02.04-.04.04h-.23s-.04-.02-.04-.04v-.93Z"/>
      <path class="cls-15" d="m221.29,305.55c0-.45.19-.72.53-.72s.53.27.53.72-.19.72-.53.72-.53-.27-.53-.72Zm.74,0c0-.27-.09-.43-.21-.43s-.21.16-.21.43.09.43.21.43.21-.16.21-.43Z"/>
      <path class="cls-15" d="m222.77,305.28h-.2s-.04-.02-.04-.04v-.13s0-.02.01-.03l.27-.21s.04-.02.07-.02h.15s.04.02.04.04v1.32s-.02.04-.04.04h-.23s-.04-.02-.04-.04v-.93Z"/>
      <path class="cls-15" d="m223.38,305.55c0-.45.19-.72.53-.72s.53.27.53.72-.19.72-.53.72-.53-.27-.53-.72Zm.74,0c0-.27-.09-.43-.21-.43s-.21.16-.21.43.09.43.21.43.21-.16.21-.43Z"/>
      <path class="cls-15" d="m224.86,305.28h-.2s-.04-.02-.04-.04v-.13s0-.02.01-.03l.27-.21s.04-.02.07-.02h.15s.04.02.04.04v1.32s-.02.04-.04.04h-.23s-.04-.02-.04-.04v-.93Z"/>
      <path class="cls-15" d="m225.47,305.55c0-.45.19-.72.53-.72s.53.27.53.72-.19.72-.53.72-.53-.27-.53-.72Zm.74,0c0-.27-.09-.43-.21-.43s-.21.16-.21.43.09.43.21.43.21-.16.21-.43Z"/>
      <path class="cls-15" d="m226.95,305.28h-.2s-.04-.02-.04-.04v-.13s0-.02.01-.03l.27-.21s.04-.02.07-.02h.15s.04.02.04.04v1.32s-.02.04-.04.04h-.23s-.04-.02-.04-.04v-.93Z"/>
      <path class="cls-15" d="m227.56,305.55c0-.45.19-.72.53-.72s.53.27.53.72-.19.72-.53.72-.53-.27-.53-.72Zm.74,0c0-.27-.09-.43-.21-.43s-.21.16-.21.43.09.43.21.43.21-.16.21-.43Z"/>
      <path class="cls-15" d="m229.04,305.28h-.2s-.04-.02-.04-.04v-.13s0-.02.01-.03l.27-.21s.04-.02.07-.02h.15s.04.02.04.04v1.32s-.02.04-.04.04h-.23s-.04-.02-.04-.04v-.93Z"/>
      <path class="cls-15" d="m229.65,305.55c0-.45.19-.72.53-.72s.53.27.53.72-.19.72-.53.72-.53-.27-.53-.72Zm.74,0c0-.27-.09-.43-.21-.43s-.21.16-.21.43.09.43.21.43.21-.16.21-.43Z"/>
      <path class="cls-15" d="m231.13,305.28h-.2s-.04-.02-.04-.04v-.13s0-.02.01-.03l.27-.21s.04-.02.07-.02h.15s.04.02.04.04v1.32s-.02.04-.04.04h-.23s-.04-.02-.04-.04v-.93Z"/>
      <path class="cls-15" d="m231.74,305.55c0-.45.19-.72.53-.72s.53.27.53.72-.19.72-.53.72-.53-.27-.53-.72Zm.74,0c0-.27-.09-.43-.21-.43s-.21.16-.21.43.09.43.21.43.21-.16.21-.43Z"/>
      <path class="cls-15" d="m233.22,305.28h-.2s-.04-.02-.04-.04v-.13s0-.02.01-.03l.27-.21s.04-.02.07-.02h.15s.04.02.04.04v1.32s-.02.04-.04.04h-.23s-.04-.02-.04-.04v-.93Z"/>
      <path class="cls-15" d="m233.83,305.55c0-.45.19-.72.53-.72s.53.27.53.72-.19.72-.53.72-.53-.27-.53-.72Zm.74,0c0-.27-.09-.43-.21-.43s-.21.16-.21.43.09.43.21.43.21-.16.21-.43Z"/>
      <path class="cls-15" d="m235.31,305.28h-.2s-.04-.02-.04-.04v-.13s0-.02.01-.03l.27-.21s.04-.02.07-.02h.15s.04.02.04.04v1.32s-.02.04-.04.04h-.23s-.04-.02-.04-.04v-.93Z"/>
      <path class="cls-15" d="m235.92,305.55c0-.45.19-.72.53-.72s.53.27.53.72-.19.72-.53.72-.53-.27-.53-.72Zm.74,0c0-.27-.09-.43-.21-.43s-.21.16-.21.43.09.43.21.43.21-.16.21-.43Z"/>
      <path class="cls-15" d="m237.22,305.55c0-.45.19-.72.53-.72s.53.27.53.72-.19.72-.53.72-.53-.27-.53-.72Zm.74,0c0-.27-.09-.43-.21-.43s-.21.16-.21.43.09.43.21.43.21-.16.21-.43Z"/>
      <path class="cls-15" d="m238.7,305.28h-.2s-.04-.02-.04-.04v-.13s0-.02.01-.03l.27-.21s.04-.02.07-.02h.15s.04.02.04.04v1.32s-.02.04-.04.04h-.23s-.04-.02-.04-.04v-.93Z"/>
      <path class="cls-15" d="m239.31,305.55c0-.45.19-.72.53-.72s.53.27.53.72-.19.72-.53.72-.53-.27-.53-.72Zm.74,0c0-.27-.09-.43-.21-.43s-.21.16-.21.43.09.43.21.43.21-.16.21-.43Z"/>
      <path class="cls-15" d="m240.79,305.28h-.2s-.04-.02-.04-.04v-.13s0-.02.01-.03l.27-.21s.04-.02.07-.02h.15s.04.02.04.04v1.32s-.02.04-.04.04h-.23s-.04-.02-.04-.04v-.93Z"/>
      <path class="cls-15" d="m241.4,305.55c0-.45.19-.72.53-.72s.53.27.53.72-.19.72-.53.72-.53-.27-.53-.72Zm.74,0c0-.27-.09-.43-.21-.43s-.21.16-.21.43.09.43.21.43.21-.16.21-.43Z"/>
      <path class="cls-15" d="m242.88,305.28h-.2s-.04-.02-.04-.04v-.13s0-.02.01-.03l.27-.21s.04-.02.07-.02h.15s.04.02.04.04v1.32s-.02.04-.04.04h-.23s-.04-.02-.04-.04v-.93Z"/>
      <path class="cls-15" d="m243.49,305.55c0-.45.19-.72.53-.72s.53.27.53.72-.19.72-.53.72-.53-.27-.53-.72Zm.74,0c0-.27-.09-.43-.21-.43s-.21.16-.21.43.09.43.21.43.21-.16.21-.43Z"/>
      <path class="cls-15" d="m244.97,305.28h-.2s-.04-.02-.04-.04v-.13s0-.02.01-.03l.27-.21s.04-.02.07-.02h.15s.04.02.04.04v1.32s-.02.04-.04.04h-.23s-.04-.02-.04-.04v-.93Z"/>
      <path class="cls-15" d="m245.58,305.55c0-.45.19-.72.53-.72s.53.27.53.72-.19.72-.53.72-.53-.27-.53-.72Zm.74,0c0-.27-.09-.43-.21-.43s-.21.16-.21.43.09.43.21.43.21-.16.21-.43Z"/>
      <path class="cls-15" d="m247.06,305.28h-.2s-.04-.02-.04-.04v-.13s0-.02.01-.03l.27-.21s.04-.02.07-.02h.15s.04.02.04.04v1.32s-.02.04-.04.04h-.23s-.04-.02-.04-.04v-.93Z"/>
      <path class="cls-15" d="m247.67,305.55c0-.45.19-.72.53-.72s.53.27.53.72-.19.72-.53.72-.53-.27-.53-.72Zm.74,0c0-.27-.09-.43-.21-.43s-.21.16-.21.43.09.43.21.43.21-.16.21-.43Z"/>
      <path class="cls-15" d="m249.15,305.28h-.2s-.04-.02-.04-.04v-.13s0-.02.01-.03l.27-.21s.04-.02.07-.02h.15s.04.02.04.04v1.32s-.02.04-.04.04h-.23s-.04-.02-.04-.04v-.93Z"/>
      <path class="cls-15" d="m249.76,305.55c0-.45.19-.72.53-.72s.53.27.53.72-.19.72-.53.72-.53-.27-.53-.72Zm.74,0c0-.27-.09-.43-.21-.43s-.21.16-.21.43.09.43.21.43.21-.16.21-.43Z"/>
      <path class="cls-15" d="m251.05,305.55c0-.45.19-.72.53-.72s.53.27.53.72-.19.72-.53.72-.53-.27-.53-.72Zm.74,0c0-.27-.09-.43-.21-.43s-.21.16-.21.43.09.43.21.43.21-.16.21-.43Z"/>
      <path class="cls-15" d="m252.35,305.55c0-.45.19-.72.53-.72s.53.27.53.72-.19.72-.53.72-.53-.27-.53-.72Zm.74,0c0-.27-.09-.43-.21-.43s-.21.16-.21.43.09.43.21.43.21-.16.21-.43Z"/>
      <path class="cls-15" d="m253.82,305.28h-.2s-.04-.02-.04-.04v-.13s0-.02.01-.03l.27-.21s.04-.02.07-.02h.15s.04.02.04.04v1.32s-.02.04-.04.04h-.23s-.04-.02-.04-.04v-.93Z"/>
      <path class="cls-15" d="m254.62,305.28h-.2s-.04-.02-.04-.04v-.13s0-.02.01-.03l.27-.21s.04-.02.07-.02h.15s.04.02.04.04v1.32s-.02.04-.04.04h-.23s-.04-.02-.04-.04v-.93Z"/>
      <path class="cls-15" d="m255.42,305.28h-.2s-.04-.02-.04-.04v-.13s0-.02.01-.03l.27-.21s.04-.02.07-.02h.15s.04.02.04.04v1.32s-.02.04-.04.04h-.23s-.04-.02-.04-.04v-.93Z"/>
      <path class="cls-15" d="m256.03,305.55c0-.45.19-.72.53-.72s.53.27.53.72-.19.72-.53.72-.53-.27-.53-.72Zm.74,0c0-.27-.09-.43-.21-.43s-.21.16-.21.43.09.43.21.43.21-.16.21-.43Z"/>
      <path class="cls-15" d="m215.82,307.95c0-.45.19-.72.53-.72s.53.27.53.72-.19.72-.53.72-.53-.27-.53-.72Zm.74,0c0-.27-.09-.43-.21-.43s-.21.16-.21.43.09.43.21.43.21-.16.21-.43Z"/>
      <path class="cls-15" d="m217.11,307.95c0-.45.19-.72.53-.72s.53.27.53.72-.19.72-.53.72-.53-.27-.53-.72Zm.74,0c0-.27-.09-.43-.21-.43s-.21.16-.21.43.09.43.21.43.21-.16.21-.43Z"/>
      <path class="cls-15" d="m218.59,307.68h-.2s-.04-.02-.04-.04v-.13s0-.02.01-.03l.27-.21s.04-.02.07-.02h.15s.04.02.04.04v1.32s-.02.04-.04.04h-.23s-.04-.02-.04-.04v-.93Z"/>
      <path class="cls-15" d="m219.2,307.95c0-.45.19-.72.53-.72s.53.27.53.72-.19.72-.53.72-.53-.27-.53-.72Zm.74,0c0-.27-.09-.43-.21-.43s-.21.16-.21.43.09.43.21.43.21-.16.21-.43Z"/>
      <path class="cls-15" d="m220.68,307.68h-.2s-.04-.02-.04-.04v-.13s0-.02.01-.03l.27-.21s.04-.02.07-.02h.15s.04.02.04.04v1.32s-.02.04-.04.04h-.23s-.04-.02-.04-.04v-.93Z"/>
      <path class="cls-15" d="m221.29,307.95c0-.45.19-.72.53-.72s.53.27.53.72-.19.72-.53.72-.53-.27-.53-.72Zm.74,0c0-.27-.09-.43-.21-.43s-.21.16-.21.43.09.43.21.43.21-.16.21-.43Z"/>
      <path class="cls-15" d="m222.77,307.68h-.2s-.04-.02-.04-.04v-.13s0-.02.01-.03l.27-.21s.04-.02.07-.02h.15s.04.02.04.04v1.32s-.02.04-.04.04h-.23s-.04-.02-.04-.04v-.93Z"/>
      <path class="cls-15" d="m223.38,307.95c0-.45.19-.72.53-.72s.53.27.53.72-.19.72-.53.72-.53-.27-.53-.72Zm.74,0c0-.27-.09-.43-.21-.43s-.21.16-.21.43.09.43.21.43.21-.16.21-.43Z"/>
      <path class="cls-15" d="m224.86,307.68h-.2s-.04-.02-.04-.04v-.13s0-.02.01-.03l.27-.21s.04-.02.07-.02h.15s.04.02.04.04v1.32s-.02.04-.04.04h-.23s-.04-.02-.04-.04v-.93Z"/>
      <path class="cls-15" d="m225.47,307.95c0-.45.19-.72.53-.72s.53.27.53.72-.19.72-.53.72-.53-.27-.53-.72Zm.74,0c0-.27-.09-.43-.21-.43s-.21.16-.21.43.09.43.21.43.21-.16.21-.43Z"/>
      <path class="cls-15" d="m226.95,307.68h-.2s-.04-.02-.04-.04v-.13s0-.02.01-.03l.27-.21s.04-.02.07-.02h.15s.04.02.04.04v1.32s-.02.04-.04.04h-.23s-.04-.02-.04-.04v-.93Z"/>
      <path class="cls-15" d="m227.56,307.95c0-.45.19-.72.53-.72s.53.27.53.72-.19.72-.53.72-.53-.27-.53-.72Zm.74,0c0-.27-.09-.43-.21-.43s-.21.16-.21.43.09.43.21.43.21-.16.21-.43Z"/>
      <path class="cls-15" d="m229.04,307.68h-.2s-.04-.02-.04-.04v-.13s0-.02.01-.03l.27-.21s.04-.02.07-.02h.15s.04.02.04.04v1.32s-.02.04-.04.04h-.23s-.04-.02-.04-.04v-.93Z"/>
      <path class="cls-15" d="m229.65,307.95c0-.45.19-.72.53-.72s.53.27.53.72-.19.72-.53.72-.53-.27-.53-.72Zm.74,0c0-.27-.09-.43-.21-.43s-.21.16-.21.43.09.43.21.43.21-.16.21-.43Z"/>
      <path class="cls-15" d="m230.95,307.95c0-.45.19-.72.53-.72s.53.27.53.72-.19.72-.53.72-.53-.27-.53-.72Zm.74,0c0-.27-.09-.43-.21-.43s-.21.16-.21.43.09.43.21.43.21-.16.21-.43Z"/>
      <path class="cls-15" d="m232.42,307.68h-.2s-.04-.02-.04-.04v-.13s0-.02.01-.03l.27-.21s.04-.02.07-.02h.15s.04.02.04.04v1.32s-.02.04-.04.04h-.23s-.04-.02-.04-.04v-.93Z"/>
      <path class="cls-15" d="m233.04,307.95c0-.45.19-.72.53-.72s.53.27.53.72-.19.72-.53.72-.53-.27-.53-.72Zm.74,0c0-.27-.09-.43-.21-.43s-.21.16-.21.43.09.43.21.43.21-.16.21-.43Z"/>
      <path class="cls-15" d="m234.51,307.68h-.2s-.04-.02-.04-.04v-.13s0-.02.01-.03l.27-.21s.04-.02.07-.02h.15s.04.02.04.04v1.32s-.02.04-.04.04h-.23s-.04-.02-.04-.04v-.93Z"/>
      <path class="cls-15" d="m235.13,307.95c0-.45.19-.72.53-.72s.53.27.53.72-.19.72-.53.72-.53-.27-.53-.72Zm.74,0c0-.27-.09-.43-.21-.43s-.21.16-.21.43.09.43.21.43.21-.16.21-.43Z"/>
      <path class="cls-15" d="m236.61,307.68h-.2s-.04-.02-.04-.04v-.13s0-.02.01-.03l.27-.21s.04-.02.07-.02h.15s.04.02.04.04v1.32s-.02.04-.04.04h-.23s-.04-.02-.04-.04v-.93Z"/>
      <path class="cls-15" d="m237.22,307.95c0-.45.19-.72.53-.72s.53.27.53.72-.19.72-.53.72-.53-.27-.53-.72Zm.74,0c0-.27-.09-.43-.21-.43s-.21.16-.21.43.09.43.21.43.21-.16.21-.43Z"/>
      <path class="cls-15" d="m238.7,307.68h-.2s-.04-.02-.04-.04v-.13s0-.02.01-.03l.27-.21s.04-.02.07-.02h.15s.04.02.04.04v1.32s-.02.04-.04.04h-.23s-.04-.02-.04-.04v-.93Z"/>
      <path class="cls-15" d="m239.31,307.95c0-.45.19-.72.53-.72s.53.27.53.72-.19.72-.53.72-.53-.27-.53-.72Zm.74,0c0-.27-.09-.43-.21-.43s-.21.16-.21.43.09.43.21.43.21-.16.21-.43Z"/>
      <path class="cls-15" d="m240.79,307.68h-.2s-.04-.02-.04-.04v-.13s0-.02.01-.03l.27-.21s.04-.02.07-.02h.15s.04.02.04.04v1.32s-.02.04-.04.04h-.23s-.04-.02-.04-.04v-.93Z"/>
      <path class="cls-15" d="m241.4,307.95c0-.45.19-.72.53-.72s.53.27.53.72-.19.72-.53.72-.53-.27-.53-.72Zm.74,0c0-.27-.09-.43-.21-.43s-.21.16-.21.43.09.43.21.43.21-.16.21-.43Z"/>
      <path class="cls-15" d="m242.69,307.95c0-.45.19-.72.53-.72s.53.27.53.72-.19.72-.53.72-.53-.27-.53-.72Zm.74,0c0-.27-.09-.43-.21-.43s-.21.16-.21.43.09.43.21.43.21-.16.21-.43Z"/>
      <path class="cls-15" d="m244.17,307.68h-.2s-.04-.02-.04-.04v-.13s0-.02.01-.03l.27-.21s.04-.02.07-.02h.15s.04.02.04.04v1.32s-.02.04-.04.04h-.23s-.04-.02-.04-.04v-.93Z"/>
      <path class="cls-15" d="m244.78,307.95c0-.45.19-.72.53-.72s.53.27.53.72-.19.72-.53.72-.53-.27-.53-.72Zm.74,0c0-.27-.09-.43-.21-.43s-.21.16-.21.43.09.43.21.43.21-.16.21-.43Z"/>
      <path class="cls-15" d="m246.26,307.68h-.2s-.04-.02-.04-.04v-.13s0-.02.01-.03l.27-.21s.04-.02.07-.02h.15s.04.02.04.04v1.32s-.02.04-.04.04h-.23s-.04-.02-.04-.04v-.93Z"/>
      <path class="cls-15" d="m246.87,307.95c0-.45.19-.72.53-.72s.53.27.53.72-.19.72-.53.72-.53-.27-.53-.72Zm.74,0c0-.27-.09-.43-.21-.43s-.21.16-.21.43.09.43.21.43.21-.16.21-.43Z"/>
      <path class="cls-15" d="m248.35,307.68h-.2s-.04-.02-.04-.04v-.13s0-.02.01-.03l.27-.21s.04-.02.07-.02h.15s.04.02.04.04v1.32s-.02.04-.04.04h-.23s-.04-.02-.04-.04v-.93Z"/>
      <path class="cls-15" d="m248.96,307.95c0-.45.19-.72.53-.72s.53.27.53.72-.19.72-.53.72-.53-.27-.53-.72Zm.74,0c0-.27-.09-.43-.21-.43s-.21.16-.21.43.09.43.21.43.21-.16.21-.43Z"/>
      <path class="cls-15" d="m250.44,307.68h-.2s-.04-.02-.04-.04v-.13s0-.02.01-.03l.27-.21s.04-.02.07-.02h.15s.04.02.04.04v1.32s-.02.04-.04.04h-.23s-.04-.02-.04-.04v-.93Z"/>
      <path class="cls-15" d="m251.05,307.95c0-.45.19-.72.53-.72s.53.27.53.72-.19.72-.53.72-.53-.27-.53-.72Zm.74,0c0-.27-.09-.43-.21-.43s-.21.16-.21.43.09.43.21.43.21-.16.21-.43Z"/>
      <path class="cls-15" d="m252.53,307.68h-.2s-.04-.02-.04-.04v-.13s0-.02.01-.03l.27-.21s.04-.02.07-.02h.15s.04.02.04.04v1.32s-.02.04-.04.04h-.23s-.04-.02-.04-.04v-.93Z"/>
      <path class="cls-15" d="m253.14,307.95c0-.45.19-.72.53-.72s.53.27.53.72-.19.72-.53.72-.53-.27-.53-.72Zm.74,0c0-.27-.09-.43-.21-.43s-.21.16-.21.43.09.43.21.43.21-.16.21-.43Z"/>
      <path class="cls-15" d="m254.62,307.68h-.2s-.04-.02-.04-.04v-.13s0-.02.01-.03l.27-.21s.04-.02.07-.02h.15s.04.02.04.04v1.32s-.02.04-.04.04h-.23s-.04-.02-.04-.04v-.93Z"/>
      <path class="cls-15" d="m255.23,307.95c0-.45.19-.72.53-.72s.53.27.53.72-.19.72-.53.72-.53-.27-.53-.72Zm.74,0c0-.27-.09-.43-.21-.43s-.21.16-.21.43.09.43.21.43.21-.16.21-.43Z"/>
      <path class="cls-15" d="m256.71,307.68h-.2s-.04-.02-.04-.04v-.13s0-.02.01-.03l.27-.21s.04-.02.07-.02h.15s.04.02.04.04v1.32s-.02.04-.04.04h-.23s-.04-.02-.04-.04v-.93Z"/>
      <path class="cls-15" d="m215.82,310.35c0-.45.19-.72.53-.72s.53.27.53.72-.19.72-.53.72-.53-.27-.53-.72Zm.74,0c0-.27-.09-.43-.21-.43s-.21.16-.21.43.09.43.21.43.21-.16.21-.43Z"/>
      <path class="cls-15" d="m217.1,310.35c0-.45.19-.72.53-.72s.53.27.53.72-.19.72-.53.72-.53-.27-.53-.72Zm.74,0c0-.27-.09-.43-.21-.43s-.21.16-.21.43.09.43.21.43.21-.16.21-.43Z"/>
      <path class="cls-15" d="m218.56,310.08h-.2s-.04-.02-.04-.04v-.13s0-.02.01-.03l.27-.21s.04-.02.07-.02h.15s.04.02.04.04v1.32s-.02.04-.04.04h-.23s-.04-.02-.04-.04v-.93Z"/>
      <path class="cls-15" d="m219.16,310.35c0-.45.19-.72.53-.72s.53.27.53.72-.19.72-.53.72-.53-.27-.53-.72Zm.74,0c0-.27-.09-.43-.21-.43s-.21.16-.21.43.09.43.21.43.21-.16.21-.43Z"/>
      <path class="cls-15" d="m220.62,310.08h-.2s-.04-.02-.04-.04v-.13s0-.02.01-.03l.27-.21s.04-.02.07-.02h.15s.04.02.04.04v1.32s-.02.04-.04.04h-.23s-.04-.02-.04-.04v-.93Z"/>
      <path class="cls-15" d="m221.22,310.35c0-.45.19-.72.53-.72s.53.27.53.72-.19.72-.53.72-.53-.27-.53-.72Zm.74,0c0-.27-.09-.43-.21-.43s-.21.16-.21.43.09.43.21.43.21-.16.21-.43Z"/>
      <path class="cls-15" d="m222.68,310.08h-.2s-.04-.02-.04-.04v-.13s0-.02.01-.03l.27-.21s.04-.02.07-.02h.15s.04.02.04.04v1.32s-.02.04-.04.04h-.23s-.04-.02-.04-.04v-.93Z"/>
      <path class="cls-15" d="m223.28,310.35c0-.45.19-.72.53-.72s.53.27.53.72-.19.72-.53.72-.53-.27-.53-.72Zm.74,0c0-.27-.09-.43-.21-.43s-.21.16-.21.43.09.43.21.43.21-.16.21-.43Z"/>
      <path class="cls-15" d="m224.74,310.08h-.2s-.04-.02-.04-.04v-.13s0-.02.01-.03l.27-.21s.04-.02.07-.02h.15s.04.02.04.04v1.32s-.02.04-.04.04h-.23s-.04-.02-.04-.04v-.93Z"/>
      <path class="cls-15" d="m225.34,310.35c0-.45.19-.72.53-.72s.53.27.53.72-.19.72-.53.72-.53-.27-.53-.72Zm.74,0c0-.27-.09-.43-.21-.43s-.21.16-.21.43.09.43.21.43.21-.16.21-.43Z"/>
      <path class="cls-15" d="m226.8,310.08h-.2s-.04-.02-.04-.04v-.13s0-.02.01-.03l.27-.21s.04-.02.07-.02h.15s.04.02.04.04v1.32s-.02.04-.04.04h-.23s-.04-.02-.04-.04v-.93Z"/>
      <path class="cls-15" d="m227.4,310.35c0-.45.19-.72.53-.72s.53.27.53.72-.19.72-.53.72-.53-.27-.53-.72Zm.74,0c0-.27-.09-.43-.21-.43s-.21.16-.21.43.09.43.21.43.21-.16.21-.43Z"/>
      <path class="cls-15" d="m228.86,310.08h-.2s-.04-.02-.04-.04v-.13s0-.02.01-.03l.27-.21s.04-.02.07-.02h.15s.04.02.04.04v1.32s-.02.04-.04.04h-.23s-.04-.02-.04-.04v-.93Z"/>
      <path class="cls-15" d="m229.46,310.35c0-.45.19-.72.53-.72s.53.27.53.72-.19.72-.53.72-.53-.27-.53-.72Zm.74,0c0-.27-.09-.43-.21-.43s-.21.16-.21.43.09.43.21.43.21-.16.21-.43Z"/>
      <path class="cls-15" d="m230.92,310.08h-.2s-.04-.02-.04-.04v-.13s0-.02.01-.03l.27-.21s.04-.02.07-.02h.15s.04.02.04.04v1.32s-.02.04-.04.04h-.23s-.04-.02-.04-.04v-.93Z"/>
      <path class="cls-15" d="m231.52,310.35c0-.45.19-.72.53-.72s.53.27.53.72-.19.72-.53.72-.53-.27-.53-.72Zm.74,0c0-.27-.09-.43-.21-.43s-.21.16-.21.43.09.43.21.43.21-.16.21-.43Z"/>
      <path class="cls-15" d="m232.98,310.08h-.2s-.04-.02-.04-.04v-.13s0-.02.01-.03l.27-.21s.04-.02.07-.02h.15s.04.02.04.04v1.32s-.02.04-.04.04h-.23s-.04-.02-.04-.04v-.93Z"/>
      <path class="cls-15" d="m233.58,310.35c0-.45.19-.72.53-.72s.53.27.53.72-.19.72-.53.72-.53-.27-.53-.72Zm.74,0c0-.27-.09-.43-.21-.43s-.21.16-.21.43.09.43.21.43.21-.16.21-.43Z"/>
      <path class="cls-15" d="m234.86,310.35c0-.45.19-.72.53-.72s.53.27.53.72-.19.72-.53.72-.53-.27-.53-.72Zm.74,0c0-.27-.09-.43-.21-.43s-.21.16-.21.43.09.43.21.43.21-.16.21-.43Z"/>
      <path class="cls-15" d="m236.32,310.08h-.2s-.04-.02-.04-.04v-.13s0-.02.01-.03l.27-.21s.04-.02.07-.02h.15s.04.02.04.04v1.32s-.02.04-.04.04h-.23s-.04-.02-.04-.04v-.93Z"/>
      <path class="cls-15" d="m236.92,310.35c0-.45.19-.72.53-.72s.53.27.53.72-.19.72-.53.72-.53-.27-.53-.72Zm.74,0c0-.27-.09-.43-.21-.43s-.21.16-.21.43.09.43.21.43.21-.16.21-.43Z"/>
      <path class="cls-15" d="m238.38,310.08h-.2s-.04-.02-.04-.04v-.13s0-.02.01-.03l.27-.21s.04-.02.07-.02h.15s.04.02.04.04v1.32s-.02.04-.04.04h-.23s-.04-.02-.04-.04v-.93Z"/>
      <path class="cls-15" d="m238.98,310.35c0-.45.19-.72.53-.72s.53.27.53.72-.19.72-.53.72-.53-.27-.53-.72Zm.74,0c0-.27-.09-.43-.21-.43s-.21.16-.21.43.09.43.21.43.21-.16.21-.43Z"/>
      <path class="cls-15" d="m240.44,310.08h-.2s-.04-.02-.04-.04v-.13s0-.02.01-.03l.27-.21s.04-.02.07-.02h.15s.04.02.04.04v1.32s-.02.04-.04.04h-.23s-.04-.02-.04-.04v-.93Z"/>
      <path class="cls-15" d="m241.04,310.35c0-.45.19-.72.53-.72s.53.27.53.72-.19.72-.53.72-.53-.27-.53-.72Zm.74,0c0-.27-.09-.43-.21-.43s-.21.16-.21.43.09.43.21.43.21-.16.21-.43Z"/>
      <path class="cls-15" d="m242.5,310.08h-.2s-.04-.02-.04-.04v-.13s0-.02.01-.03l.27-.21s.04-.02.07-.02h.15s.04.02.04.04v1.32s-.02.04-.04.04h-.23s-.04-.02-.04-.04v-.93Z"/>
      <path class="cls-15" d="m243.1,310.35c0-.45.19-.72.53-.72s.53.27.53.72-.19.72-.53.72-.53-.27-.53-.72Zm.74,0c0-.27-.09-.43-.21-.43s-.21.16-.21.43.09.43.21.43.21-.16.21-.43Z"/>
      <path class="cls-15" d="m244.56,310.08h-.2s-.04-.02-.04-.04v-.13s0-.02.01-.03l.27-.21s.04-.02.07-.02h.15s.04.02.04.04v1.32s-.02.04-.04.04h-.23s-.04-.02-.04-.04v-.93Z"/>
      <path class="cls-15" d="m245.16,310.35c0-.45.19-.72.53-.72s.53.27.53.72-.19.72-.53.72-.53-.27-.53-.72Zm.74,0c0-.27-.09-.43-.21-.43s-.21.16-.21.43.09.43.21.43.21-.16.21-.43Z"/>
      <path class="cls-15" d="m246.62,310.08h-.2s-.04-.02-.04-.04v-.13s0-.02.01-.03l.27-.21s.04-.02.07-.02h.15s.04.02.04.04v1.32s-.02.04-.04.04h-.23s-.04-.02-.04-.04v-.93Z"/>
      <path class="cls-15" d="m247.22,310.35c0-.45.19-.72.53-.72s.53.27.53.72-.19.72-.53.72-.53-.27-.53-.72Zm.74,0c0-.27-.09-.43-.21-.43s-.21.16-.21.43.09.43.21.43.21-.16.21-.43Z"/>
      <path class="cls-15" d="m248.5,310.35c0-.45.19-.72.53-.72s.53.27.53.72-.19.72-.53.72-.53-.27-.53-.72Zm.74,0c0-.27-.09-.43-.21-.43s-.21.16-.21.43.09.43.21.43.21-.16.21-.43Z"/>
      <path class="cls-15" d="m249.78,310.35c0-.45.19-.72.53-.72s.53.27.53.72-.19.72-.53.72-.53-.27-.53-.72Zm.74,0c0-.27-.09-.43-.21-.43s-.21.16-.21.43.09.43.21.43.21-.16.21-.43Z"/>
      <path class="cls-15" d="m251.24,310.08h-.2s-.04-.02-.04-.04v-.13s0-.02.01-.03l.27-.21s.04-.02.07-.02h.15s.04.02.04.04v1.32s-.02.04-.04.04h-.23s-.04-.02-.04-.04v-.93Z"/>
      <path class="cls-15" d="m252.02,310.08h-.2s-.04-.02-.04-.04v-.13s0-.02.01-.03l.27-.21s.04-.02.07-.02h.15s.04.02.04.04v1.32s-.02.04-.04.04h-.23s-.04-.02-.04-.04v-.93Z"/>
      <path class="cls-15" d="m252.81,310.08h-.2s-.04-.02-.04-.04v-.13s0-.02.01-.03l.27-.21s.04-.02.07-.02h.15s.04.02.04.04v1.32s-.02.04-.04.04h-.23s-.04-.02-.04-.04v-.93Z"/>
      <path class="cls-15" d="m253.4,310.35c0-.45.19-.72.53-.72s.53.27.53.72-.19.72-.53.72-.53-.27-.53-.72Zm.74,0c0-.27-.09-.43-.21-.43s-.21.16-.21.43.09.43.21.43.21-.16.21-.43Z"/>
      <path class="cls-15" d="m254.68,310.35c0-.45.19-.72.53-.72s.53.27.53.72-.19.72-.53.72-.53-.27-.53-.72Zm.74,0c0-.27-.09-.43-.21-.43s-.21.16-.21.43.09.43.21.43.21-.16.21-.43Z"/>
      <path class="cls-15" d="m255.96,310.35c0-.45.19-.72.53-.72s.53.27.53.72-.19.72-.53.72-.53-.27-.53-.72Zm.74,0c0-.27-.09-.43-.21-.43s-.21.16-.21.43.09.43.21.43.21-.16.21-.43Z"/>
      <path class="cls-15" d="m216,312.48h-.2s-.04-.02-.04-.04v-.13s0-.02.01-.03l.27-.21s.04-.02.07-.02h.15s.04.02.04.04v1.32s-.02.04-.04.04h-.23s-.04-.02-.04-.04v-.93Z"/>
      <path class="cls-15" d="m216.61,312.75c0-.45.19-.72.53-.72s.53.27.53.72-.19.72-.53.72-.53-.27-.53-.72Zm.74,0c0-.27-.09-.43-.21-.43s-.21.16-.21.43.09.43.21.43.21-.16.21-.43Z"/>
      <path class="cls-15" d="m218.09,312.48h-.2s-.04-.02-.04-.04v-.13s0-.02.01-.03l.27-.21s.04-.02.07-.02h.15s.04.02.04.04v1.32s-.02.04-.04.04h-.23s-.04-.02-.04-.04v-.93Z"/>
      <path class="cls-15" d="m218.71,312.75c0-.45.19-.72.53-.72s.53.27.53.72-.19.72-.53.72-.53-.27-.53-.72Zm.74,0c0-.27-.09-.43-.21-.43s-.21.16-.21.43.09.43.21.43.21-.16.21-.43Z"/>
      <path class="cls-15" d="m220.18,312.48h-.2s-.04-.02-.04-.04v-.13s0-.02.01-.03l.27-.21s.04-.02.07-.02h.15s.04.02.04.04v1.32s-.02.04-.04.04h-.23s-.04-.02-.04-.04v-.93Z"/>
      <path class="cls-15" d="m220.79,312.75c0-.45.19-.72.53-.72s.53.27.53.72-.19.72-.53.72-.53-.27-.53-.72Zm.74,0c0-.27-.09-.43-.21-.43s-.21.16-.21.43.09.43.21.43.21-.16.21-.43Z"/>
      <path class="cls-15" d="m222.27,312.48h-.2s-.04-.02-.04-.04v-.13s0-.02.01-.03l.27-.21s.04-.02.07-.02h.15s.04.02.04.04v1.32s-.02.04-.04.04h-.23s-.04-.02-.04-.04v-.93Z"/>
      <path class="cls-15" d="m222.89,312.75c0-.45.19-.72.53-.72s.53.27.53.72-.19.72-.53.72-.53-.27-.53-.72Zm.74,0c0-.27-.09-.43-.21-.43s-.21.16-.21.43.09.43.21.43.21-.16.21-.43Z"/>
      <path class="cls-15" d="m224.36,312.48h-.2s-.04-.02-.04-.04v-.13s0-.02.01-.03l.27-.21s.04-.02.07-.02h.15s.04.02.04.04v1.32s-.02.04-.04.04h-.23s-.04-.02-.04-.04v-.93Z"/>
      <path class="cls-15" d="m224.98,312.75c0-.45.19-.72.53-.72s.53.27.53.72-.19.72-.53.72-.53-.27-.53-.72Zm.74,0c0-.27-.09-.43-.21-.43s-.21.16-.21.43.09.43.21.43.21-.16.21-.43Z"/>
      <path class="cls-15" d="m226.46,312.48h-.2s-.04-.02-.04-.04v-.13s0-.02.01-.03l.27-.21s.04-.02.07-.02h.15s.04.02.04.04v1.32s-.02.04-.04.04h-.23s-.04-.02-.04-.04v-.93Z"/>
      <path class="cls-15" d="m227.07,312.75c0-.45.19-.72.53-.72s.53.27.53.72-.19.72-.53.72-.53-.27-.53-.72Zm.74,0c0-.27-.09-.43-.21-.43s-.21.16-.21.43.09.43.21.43.21-.16.21-.43Z"/>
      <path class="cls-15" d="m228.36,312.75c0-.45.19-.72.53-.72s.53.27.53.72-.19.72-.53.72-.53-.27-.53-.72Zm.74,0c0-.27-.09-.43-.21-.43s-.21.16-.21.43.09.43.21.43.21-.16.21-.43Z"/>
      <path class="cls-15" d="m229.84,312.48h-.2s-.04-.02-.04-.04v-.13s0-.02.01-.03l.27-.21s.04-.02.07-.02h.15s.04.02.04.04v1.32s-.02.04-.04.04h-.23s-.04-.02-.04-.04v-.93Z"/>
      <path class="cls-15" d="m230.45,312.75c0-.45.19-.72.53-.72s.53.27.53.72-.19.72-.53.72-.53-.27-.53-.72Zm.74,0c0-.27-.09-.43-.21-.43s-.21.16-.21.43.09.43.21.43.21-.16.21-.43Z"/>
      <path class="cls-15" d="m231.93,312.48h-.2s-.04-.02-.04-.04v-.13s0-.02.01-.03l.27-.21s.04-.02.07-.02h.15s.04.02.04.04v1.32s-.02.04-.04.04h-.23s-.04-.02-.04-.04v-.93Z"/>
      <path class="cls-15" d="m232.54,312.75c0-.45.19-.72.53-.72s.53.27.53.72-.19.72-.53.72-.53-.27-.53-.72Zm.74,0c0-.27-.09-.43-.21-.43s-.21.16-.21.43.09.43.21.43.21-.16.21-.43Z"/>
      <path class="cls-15" d="m234.02,312.48h-.2s-.04-.02-.04-.04v-.13s0-.02.01-.03l.27-.21s.04-.02.07-.02h.15s.04.02.04.04v1.32s-.02.04-.04.04h-.23s-.04-.02-.04-.04v-.93Z"/>
      <path class="cls-15" d="m234.63,312.75c0-.45.19-.72.53-.72s.53.27.53.72-.19.72-.53.72-.53-.27-.53-.72Zm.74,0c0-.27-.09-.43-.21-.43s-.21.16-.21.43.09.43.21.43.21-.16.21-.43Z"/>
      <path class="cls-15" d="m236.11,312.48h-.2s-.04-.02-.04-.04v-.13s0-.02.01-.03l.27-.21s.04-.02.07-.02h.15s.04.02.04.04v1.32s-.02.04-.04.04h-.23s-.04-.02-.04-.04v-.93Z"/>
      <path class="cls-15" d="m236.72,312.75c0-.45.19-.72.53-.72s.53.27.53.72-.19.72-.53.72-.53-.27-.53-.72Zm.74,0c0-.27-.09-.43-.21-.43s-.21.16-.21.43.09.43.21.43.21-.16.21-.43Z"/>
      <path class="cls-15" d="m238.2,312.48h-.2s-.04-.02-.04-.04v-.13s0-.02.01-.03l.27-.21s.04-.02.07-.02h.15s.04.02.04.04v1.32s-.02.04-.04.04h-.23s-.04-.02-.04-.04v-.93Z"/>
      <path class="cls-15" d="m238.81,312.75c0-.45.19-.72.53-.72s.53.27.53.72-.19.72-.53.72-.53-.27-.53-.72Zm.74,0c0-.27-.09-.43-.21-.43s-.21.16-.21.43.09.43.21.43.21-.16.21-.43Z"/>
      <path class="cls-15" d="m240.1,312.75c0-.45.19-.72.53-.72s.53.27.53.72-.19.72-.53.72-.53-.27-.53-.72Zm.74,0c0-.27-.09-.43-.21-.43s-.21.16-.21.43.09.43.21.43.21-.16.21-.43Z"/>
      <path class="cls-15" d="m241.58,312.48h-.2s-.04-.02-.04-.04v-.13s0-.02.01-.03l.27-.21s.04-.02.07-.02h.15s.04.02.04.04v1.32s-.02.04-.04.04h-.23s-.04-.02-.04-.04v-.93Z"/>
      <path class="cls-15" d="m242.19,312.75c0-.45.19-.72.53-.72s.53.27.53.72-.19.72-.53.72-.53-.27-.53-.72Zm.74,0c0-.27-.09-.43-.21-.43s-.21.16-.21.43.09.43.21.43.21-.16.21-.43Z"/>
      <path class="cls-15" d="m243.67,312.48h-.2s-.04-.02-.04-.04v-.13s0-.02.01-.03l.27-.21s.04-.02.07-.02h.15s.04.02.04.04v1.32s-.02.04-.04.04h-.23s-.04-.02-.04-.04v-.93Z"/>
      <path class="cls-15" d="m244.29,312.75c0-.45.19-.72.53-.72s.53.27.53.72-.19.72-.53.72-.53-.27-.53-.72Zm.74,0c0-.27-.09-.43-.21-.43s-.21.16-.21.43.09.43.21.43.21-.16.21-.43Z"/>
      <path class="cls-15" d="m245.76,312.48h-.2s-.04-.02-.04-.04v-.13s0-.02.01-.03l.27-.21s.04-.02.07-.02h.15s.04.02.04.04v1.32s-.02.04-.04.04h-.23s-.04-.02-.04-.04v-.93Z"/>
      <path class="cls-15" d="m246.37,312.75c0-.45.19-.72.53-.72s.53.27.53.72-.19.72-.53.72-.53-.27-.53-.72Zm.74,0c0-.27-.09-.43-.21-.43s-.21.16-.21.43.09.43.21.43.21-.16.21-.43Z"/>
      <path class="cls-15" d="m247.85,312.48h-.2s-.04-.02-.04-.04v-.13s0-.02.01-.03l.27-.21s.04-.02.07-.02h.15s.04.02.04.04v1.32s-.02.04-.04.04h-.23s-.04-.02-.04-.04v-.93Z"/>
      <path class="cls-15" d="m248.47,312.75c0-.45.19-.72.53-.72s.53.27.53.72-.19.72-.53.72-.53-.27-.53-.72Zm.74,0c0-.27-.09-.43-.21-.43s-.21.16-.21.43.09.43.21.43.21-.16.21-.43Z"/>
      <path class="cls-15" d="m249.94,312.48h-.2s-.04-.02-.04-.04v-.13s0-.02.01-.03l.27-.21s.04-.02.07-.02h.15s.04.02.04.04v1.32s-.02.04-.04.04h-.23s-.04-.02-.04-.04v-.93Z"/>
      <path class="cls-15" d="m250.56,312.75c0-.45.19-.72.53-.72s.53.27.53.72-.19.72-.53.72-.53-.27-.53-.72Zm.74,0c0-.27-.09-.43-.21-.43s-.21.16-.21.43.09.43.21.43.21-.16.21-.43Z"/>
      <path class="cls-15" d="m252.04,312.48h-.2s-.04-.02-.04-.04v-.13s0-.02.01-.03l.27-.21s.04-.02.07-.02h.15s.04.02.04.04v1.32s-.02.04-.04.04h-.23s-.04-.02-.04-.04v-.93Z"/>
      <path class="cls-15" d="m252.65,312.75c0-.45.19-.72.53-.72s.53.27.53.72-.19.72-.53.72-.53-.27-.53-.72Zm.74,0c0-.27-.09-.43-.21-.43s-.21.16-.21.43.09.43.21.43.21-.16.21-.43Z"/>
      <path class="cls-15" d="m254.12,312.48h-.2s-.04-.02-.04-.04v-.13s0-.02.01-.03l.27-.21s.04-.02.07-.02h.15s.04.02.04.04v1.32s-.02.04-.04.04h-.23s-.04-.02-.04-.04v-.93Z"/>
      <path class="cls-15" d="m254.74,312.75c0-.45.19-.72.53-.72s.53.27.53.72-.19.72-.53.72-.53-.27-.53-.72Zm.74,0c0-.27-.09-.43-.21-.43s-.21.16-.21.43.09.43.21.43.21-.16.21-.43Z"/>
      <path class="cls-15" d="m256.03,312.75c0-.45.19-.72.53-.72s.53.27.53.72-.19.72-.53.72-.53-.27-.53-.72Zm.74,0c0-.27-.09-.43-.21-.43s-.21.16-.21.43.09.43.21.43.21-.16.21-.43Z"/>
    </g>
    <path class="cls-6" d="m127.21,320.39l14.3-.2c2.7,0,5.3-1.3,6.9-3.6.1-.1.1-.2.2-.3,2-3.2,1.9-7.7.3-10.9-2.5-5.1-10.6-4.4-10.6-4.4,0,0-.1-5.2-3.9-7.5-4.1-2.5-9.4-.5-9.4-.5,0,0-3.5-7.7-13.1-8.3-15.2-1-13.7,16.3-13.7,16.3,0,0-8.6,1.5-8.3,10.1.1,2,.3,4.4,3.8,7.2,1.7,1.4,3.8,2.1,6,2.1h27.5Z"/>
    <g>
      <path class="cls-6" d="m69.96,92.78c-2.7-6-8.4-9.8-14.5-9.8-8.6,0-15.6,7-15.6,15.6s7,15.6,15.6,15.6c1.6,0,3.2-.2,4.6-.7,0,0,2.6-.8,5.1-2.8,6.2-4.9,14.1-18.8,19.6-24.4,1.8-1.9,4.7-3.6,9.8-3.5,7.1.2,15.6,6.2,15.6,15.6,0,8.6-7,15.6-15.6,15.6-6.1,0-11.1-5.5-11.7-6.1"/>
      <polygon class="cls-12" points="80.06 111.98 86.86 105.08 80.06 105.08 80.06 111.98"/>
    </g>
    <g>
      <rect class="cls-9" x="261.22" y="89.65" width="36.03" height="35.62"/>
      <polygon class="cls-9" points="270.88 79.31 261.22 89.65 297.25 89.65 307.31 79.31 270.88 79.31"/>
      <polygon class="cls-9" points="307.31 114.62 307.31 79.31 297.25 89.65 297.25 125.27 307.31 114.62"/>
      <polygon class="cls-9" points="261.22 89.65 307.31 79.31 297.25 125.27 270.88 114.62 261.22 89.65"/>
      <polygon class="cls-9" points="261.22 125.27 270.88 79.31 297.25 89.65 261.22 125.27"/>
      <polygon class="cls-9" points="307.31 114.62 297.25 89.65 270.88 79.31 307.31 114.62"/>
      <line class="cls-9" x1="261.22" y1="89.65" x2="297.25" y2="125.27"/>
      <polyline class="cls-7" points="270.88 79.31 270.88 114.62 307.31 114.62"/>
      <line class="cls-9" x1="261.22" y1="125.27" x2="307.31" y2="114.62"/>
    </g>
    <g>
      <circle class="cls-15" cx="270.88" cy="79.31" r="2.71"/>
      <circle class="cls-15" cx="261.22" cy="89.65" r="2.71"/>
      <circle class="cls-15" cx="261.22" cy="125.27" r="2.71"/>
      <circle class="cls-15" cx="297.25" cy="125.27" r="2.71"/>
      <circle class="cls-15" cx="307.31" cy="114.62" r="2.71"/>
      <circle class="cls-15" cx="307.31" cy="79.31" r="2.71"/>
      <circle class="cls-15" cx="297.25" cy="89.65" r="2.71"/>
      <circle class="cls-15" cx="284.02" cy="84.24" r="2.71"/>
      <circle class="cls-15" cx="302.66" cy="102.12" r="2.71"/>
      <circle class="cls-15" cx="279.09" cy="106.89" r="2.71"/>
      <circle class="cls-17" cx="265.94" cy="102.13" r="2.71"/>
      <circle class="cls-17" cx="288.85" cy="97.55" r="2.71"/>
      <circle class="cls-17" cx="270.88" cy="114.62" r="2.71"/>
      <circle class="cls-17" cx="283.44" cy="119.54" r="2.71"/>
    </g>
    <g>
      <path class="cls-10" d="m333.87,202.46l-4.8-4.8c-.57-.57-1.3-.67-2.11-.66l-16.39-.03c-1.64.02-2.96,1.35-2.96,2.99v31.18c0,1.65,1.34,2.99,2.99,2.99h21.15c1.65,0,2.99-1.34,2.99-2.99v-26.57c0-.79-.32-1.56-.88-2.12Z"/>
      <path class="cls-1" d="m334.75,203.34h-4.9c-.81,0-1.47-.66-1.47-1.47v-4.72"/>
      <g>
        <line class="cls-2" x1="330.1" y1="207.32" x2="312.25" y2="207.32"/>
        <line class="cls-2" x1="330.04" y1="229.36" x2="312.19" y2="229.36"/>
        <line class="cls-2" x1="330.1" y1="211.73" x2="312.25" y2="211.73"/>
        <line class="cls-2" x1="330.1" y1="216.13" x2="312.25" y2="216.13"/>
        <line class="cls-2" x1="330.11" y1="220.54" x2="312.26" y2="220.54"/>
        <line class="cls-2" x1="330.11" y1="224.95" x2="312.25" y2="224.95"/>
      </g>
      <path class="cls-10" d="m313.58,196.09l-4.8-4.8c-.57-.57-1.3-.67-2.11-.66l-16.39-.03c-1.64.02-2.96,1.35-2.96,2.99v31.18c0,1.65,1.34,2.99,2.99,2.99h21.15c1.65,0,2.99-1.34,2.99-2.99v-26.57c0-.79-.32-1.56-.88-2.12Z"/>
      <path class="cls-1" d="m314.46,196.97h-4.9c-.81,0-1.47-.66-1.47-1.47v-4.72"/>
      <polyline class="cls-10" points="314.46 210.36 305.45 210.36 305.45 207.32 298.45 212.35 305.45 217.38 305.45 214.37 314.46 214.37 314.46 210.36"/>
      <line class="cls-14" x1="290.94" y1="201.33" x2="310.7" y2="201.33"/>
      <line class="cls-14" x1="291.01" y1="223.36" x2="310.77" y2="223.36"/>
      <line class="cls-14" x1="290.94" y1="205.74" x2="303.9" y2="205.74"/>
      <line class="cls-13" x1="290.94" y1="210.14" x2="296.43" y2="210.14"/>
      <line class="cls-13" x1="290.94" y1="214.55" x2="296.43" y2="214.55"/>
      <line class="cls-14" x1="290.94" y1="218.96" x2="303.9" y2="218.96"/>
    </g>
    <g>
      <g>
        <path class="cls-3" d="m194.9,30.69l-6.01-6.01c-.71-.71-1.63-.84-2.64-.83l-20.55-.04c-2.06.02-3.71,1.7-3.71,3.75v39.09c0,2.07,1.68,3.75,3.75,3.75h26.51c2.07,0,3.75-1.68,3.75-3.75v-33.3c0-1-.4-1.95-1.1-2.65Z"/>
        <path class="cls-11" d="m196,31.79h-6.15c-1.01,0-1.84-.82-1.84-1.84v-5.92"/>
      </g>
      <g>
        <g>
          <path class="cls-18" d="m172.38,38.11h-3.86c-.71,0-1.29-.58-1.29-1.29v-3.86c0-.71.58-1.29,1.29-1.29h3.86c.71,0,1.29.58,1.29,1.29v3.86c0,.71-.58,1.29-1.29,1.29h0Zm-3.86-5.14v3.86h3.86v-3.86h-3.86Z"/>
          <path class="cls-18" d="m177.52,33.61h-1.93c-.35,0-.64-.29-.64-.64s.29-.64.64-.64h1.93c.36,0,.64.29.64.64s-.29.64-.64.64h0Z"/>
          <path class="cls-18" d="m180.35,36.19h-4.76c-.35,0-.64-.29-.64-.64s.29-.64.64-.64h4.76c.36,0,.64.29.64.64s-.29.64-.64.64h0Z"/>
          <path class="cls-18" d="m182.02,42.61h-6.43c-.35,0-.64-.29-.64-.64s.29-.64.64-.64h6.43c.36,0,.64.29.64.64s-.29.64-.64.64h0Z"/>
          <path class="cls-18" d="m185.23,45.18h-9.64c-.35,0-.64-.29-.64-.64s.29-.64.64-.64h9.64c.36,0,.64.29.64.64s-.29.64-.64.64h0Z"/>
          <path class="cls-18" d="m185.23,53.53h-9.64c-.35,0-.64-.29-.64-.64s.29-.64.64-.64h9.64c.36,0,.64.29.64.64s-.29.64-.64.64h0Z"/>
          <path class="cls-18" d="m172.38,54.82h-3.86c-.71,0-1.29-.58-1.29-1.29v-3.86c0-.71.58-1.29,1.29-1.29h3.86c.71,0,1.29.58,1.29,1.29v3.86c0,.71-.58,1.29-1.29,1.29h0Zm-3.86-5.14v3.86h3.86v-3.86h-3.86Z"/>
          <path class="cls-18" d="m171.1,44.54c-.16,0-.33-.06-.45-.19l-1.29-1.29c-.25-.25-.25-.66,0-.91.25-.25.66-.25.91,0l.83.83,2.76-2.76c.25-.25.66-.25.91,0,.25.25.25.66,0,.91l-3.21,3.21c-.13.13-.29.19-.45.19h0Z"/>
          <path class="cls-18" d="m172.38,44.35v.83s-3.86,0-3.86,0v-3.86h3.4l1.11-1.11c-.19-.11-.41-.18-.65-.18h-3.86c-.71,0-1.29.58-1.29,1.29v3.86c0,.71.58,1.29,1.29,1.29h3.86c.71,0,1.29-.58,1.29-1.29v-2.11l-1.28,1.28Z"/>
        </g>
        <g>
          <path class="cls-18" d="m182.02,50.96h-6.43c-.35,0-.64-.29-.64-.64s.29-.64.64-.64h6.43c.36,0,.64.29.64.64s-.29.64-.64.64h0Z"/>
          <path class="cls-18" d="m188.95,59.32h-13.35c-.35,0-.64-.29-.64-.64s.29-.64.64-.64h13.35c.35,0,.64.29.64.64s-.29.64-.64.64h0Z"/>
          <path class="cls-18" d="m185.23,61.89h-9.64c-.35,0-.64-.29-.64-.64s.29-.64.64-.64h9.64c.36,0,.64.29.64.64s-.29.64-.64.64h0Z"/>
          <path class="cls-18" d="m172.38,63.17h-3.86c-.71,0-1.29-.58-1.29-1.29v-3.86c0-.71.58-1.29,1.29-1.29h3.86c.71,0,1.29.58,1.29,1.29v3.86c0,.71-.58,1.29-1.29,1.29h0Zm-3.86-5.14v3.86h3.86v-3.86h-3.86Z"/>
        </g>
      </g>
    </g>
    <g>
      <g>
        <g>
          <path class="cls-15" d="m36.23,195.72c-.48,0-.87-.39-.87-.87v-1.74h0c-.13,0-.26-.03-.39-.09-.43-.21-.6-.74-.39-1.17l.87-1.74c.18-.36.58-.55.98-.46.39.09.67.44.67.85v4.35c0,.48-.39.87-.87.87Z"/>
          <path class="cls-15" d="m41.45,195.72c-1.44,0-2.61-1.17-2.61-2.61v-.87c0-1.44,1.17-2.61,2.61-2.61s2.61,1.17,2.61,2.61v.87c0,1.44-1.17,2.61-2.61,2.61Zm0-4.35c-.48,0-.87.39-.87.87v.87c0,.48.39.87.87.87s.87-.39.87-.87v-.87c0-.48-.39-.87-.87-.87Z"/>
        </g>
        <g>
          <path class="cls-15" d="m46.67,195.72c-.48,0-.87-.39-.87-.87v-1.74h0c-.13,0-.26-.03-.39-.09-.43-.21-.6-.74-.39-1.17l.87-1.74c.18-.36.59-.55.98-.46.39.09.67.44.67.85v4.35c0,.48-.39.87-.87.87Z"/>
          <path class="cls-15" d="m51.88,195.72c-1.44,0-2.61-1.17-2.61-2.61v-.87c0-1.44,1.17-2.61,2.61-2.61s2.61,1.17,2.61,2.61v.87c0,1.44-1.17,2.61-2.61,2.61Zm0-4.35c-.48,0-.87.39-.87.87v.87c0,.48.39.87.87.87s.87-.39.87-.87v-.87c0-.48-.39-.87-.87-.87Z"/>
        </g>
        <path class="cls-15" d="m57.1,195.72c-.48,0-.87-.39-.87-.87v-1.74h0c-.13,0-.26-.03-.39-.09-.43-.21-.6-.74-.39-1.17l.87-1.74c.18-.36.59-.55.98-.46.39.09.67.44.67.85v4.35c0,.48-.39.87-.87.87Z"/>
        <path class="cls-15" d="m42.32,203.55c-.48,0-.87-.39-.87-.87v-1.74c-.1.01-.26-.03-.39-.09-.43-.21-.6-.74-.39-1.17l.87-1.74c.18-.36.59-.55.98-.46.39.09.67.44.67.85v4.35c0,.48-.39.87-.87.87Z"/>
        <path class="cls-15" d="m37.1,203.55c-1.44,0-2.61-1.17-2.61-2.61v-.87c0-1.44,1.17-2.61,2.61-2.61s2.61,1.17,2.61,2.61v.87c0,1.44-1.17,2.61-2.61,2.61Zm0-4.35c-.48,0-.87.39-.87.87v.87c0,.48.39.87.87.87s.87-.39.87-.87v-.87c0-.48-.39-.87-.87-.87Z"/>
        <path class="cls-15" d="m56.23,203.55c-1.44,0-2.61-1.17-2.61-2.61v-.87c0-1.44,1.17-2.61,2.61-2.61s2.61,1.17,2.61,2.61v.87c0,1.44-1.17,2.61-2.61,2.61Zm0-4.35c-.48,0-.87.39-.87.87v.87c0,.48.39.87.87.87s.87-.39.87-.87v-.87c0-.48-.39-.87-.87-.87Z"/>
        <path class="cls-15" d="m46.67,203.55c-.48,0-.87-.39-.87-.87v-1.74h0c-.13,0-.26-.03-.39-.09-.43-.21-.6-.74-.39-1.17l.87-1.74c.18-.36.59-.55.98-.46.39.09.67.44.67.85v4.35c0,.48-.39.87-.87.87Z"/>
        <path class="cls-15" d="m51.01,203.55c-.48,0-.87-.39-.87-.87v-1.74h0c-.13,0-.26-.03-.39-.09-.43-.21-.6-.74-.39-1.17l.87-1.74c.18-.36.59-.55.98-.46.39.09.67.44.67.85v4.35c0,.48-.39.87-.87.87Z"/>
        <path class="cls-15" d="m36.23,211.37c-.48,0-.87-.39-.87-.87v-1.74h0c-.13,0-.26-.03-.39-.09-.43-.21-.6-.74-.39-1.17l.87-1.74c.18-.36.59-.55.98-.46.39.09.67.44.67.85v4.35c0,.48-.39.87-.87.87Z"/>
        <path class="cls-15" d="m41.45,211.37c-1.44,0-2.61-1.17-2.61-2.61v-.87c0-1.44,1.17-2.61,2.61-2.61s2.61,1.17,2.61,2.61v.87c0,1.44-1.17,2.61-2.61,2.61Zm0-4.35c-.48,0-.87.39-.87.87v.87c0,.48.39.87.87.87s.87-.39.87-.87v-.87c0-.48-.39-.87-.87-.87Z"/>
        <path class="cls-15" d="m51.88,211.37c-1.44,0-2.61-1.17-2.61-2.61v-.87c0-1.44,1.17-2.61,2.61-2.61s2.61,1.17,2.61,2.61v.87c0,1.44-1.17,2.61-2.61,2.61Zm0-4.35c-.48,0-.87.39-.87.87v.87c0,.48.39.87.87.87s.87-.39.87-.87v-.87c0-.48-.39-.87-.87-.87Z"/>
        <path class="cls-15" d="m57.1,211.37c-.48,0-.87-.39-.87-.87v-1.74h0c-.13,0-.26-.03-.39-.09-.43-.21-.6-.74-.39-1.17l.87-1.74c.18-.36.59-.55.98-.46.39.09.67.44.67.85v4.35c0,.48-.39.87-.87.87Z"/>
        <path class="cls-15" d="m46.67,211.37c-.48,0-.87-.39-.87-.87v-1.74h0c-.13,0-.26-.03-.39-.09-.43-.21-.6-.74-.39-1.17l.87-1.74c.18-.36.59-.55.98-.46.39.09.67.44.67.85v4.35c0,.48-.39.87-.87.87Z"/>
      </g>
      <g>
        <path class="cls-15" d="m70.26,209.59c-.87-.47-2.79-.95-5.82,1.07l-8.29,5.74c-.86-1.59-3.48-2.58-7.67-1.38q-2.32.67-4.08-.1c-6.29-2.72-8.87-.83-11.15.84-1.25.91-2.32,1.7-3.98,1.7h.87v1.68c1.74-.23,2.96-1.11,4.14-1.98,2.09-1.53,4.06-2.97,9.43-.64,2.27.98,2.58.94,5.25.17,3.56-1.03,5.39-.16,5.7.63.24.61-.33,1.41-1.47,2l-5.89,3.36h-5.86c-.48,0-.87.39-.87.87s.39.87.87.87h6.09c.15,0,.3-.04.43-.11l6.05-3.46c1.38-.71,2.06-1.61,2.31-2.46l9.09-6.29c1.66-1.1,3.12-1.46,4.03-.98.52.28.71.76.71,1.12,0,.37,0,.51-.61,1.12-.49.49-6.35,5.73-8.62,7.76-5.07,3.51-10.76,7.26-11.74,7.64h-13.82c-.63,0-1.53-.33-2.49-.68-.85-.31-1.76-.65-2.72-.85v1.8c.73.19,1.45.44,2.13.69,1.11.41,2.16.79,3.09.79h13.92c.31,0,1.14,0,12.67-7.98.03-.02.06-.04.08-.07.33-.3,8.11-7.24,8.73-7.86,1.05-1.05,1.13-1.64,1.12-2.36,0-1.1-.63-2.12-1.63-2.66Z"/>
        <path class="cls-15" d="m30.14,235.73h-6.96c-.48,0-.87-.39-.87-.87v-17.39c0-.48.39-.87.87-.87h6.96c.48,0,.87.39.87.87v17.39c0,.48-.39.87-.87.87Zm-6.09-1.74h5.22v-15.66h-5.22v15.66Z"/>
      </g>
    </g>
  </g>
  <g id="Layer_3" data-name="Layer 3">
    <text class="cls-19" transform="translate(170.31 17.01) rotate(-10.85)"><tspan x="0" y="0">P</tspan></text>
    <text class="cls-19" transform="translate(175.63 16.07) rotate(-3.76)"><tspan x="0" y="0">l</tspan></text>
    <text class="cls-19" transform="translate(178.03 15.84) rotate(2.54)"><tspan x="0" y="0">a</tspan></text>
    <text class="cls-19" transform="translate(182.53 16) rotate(11.3)"><tspan x="0" y="0">n</tspan></text>
    <text class="cls-19" transform="translate(270.82 70.45) rotate(-20.64)"><tspan x="0" y="0">C</tspan></text>
    <text class="cls-19" transform="translate(276.61 68.29) rotate(-10.49)"><tspan x="0" y="0">o</tspan></text>
    <text class="cls-19" transform="translate(281.55 67.45) rotate(-3.72)"><tspan x="0" y="0">l</tspan></text>
    <text class="cls-19" transform="translate(284 67.28) rotate(.93)"><tspan x="0" y="0">l</tspan></text>
    <text class="cls-19" transform="translate(286.42 67.24) rotate(7.29)"><tspan x="0" y="0">e</tspan></text>
    <text class="cls-19" transform="translate(291.11 67.83) rotate(15.72)"><tspan x="0" y="0">c</tspan></text>
    <text class="cls-19" transform="translate(295.41 69.06) rotate(23.19)"><tspan x="0" y="0">t</tspan></text>
    <text class="cls-19" transform="translate(296.16 184.81) rotate(-23.19)"><tspan x="0" y="0">P</tspan></text>
    <text class="cls-19" transform="translate(301.09 182.75) rotate(-15.14)"><tspan x="0" y="0">r</tspan></text>
    <text class="cls-19" transform="translate(304.33 181.8) rotate(-7.52)"><tspan x="0" y="0">o</tspan></text>
    <text class="cls-19" transform="translate(309.26 181.15) rotate(1)"><tspan x="0" y="0">c</tspan></text>
    <text class="cls-19" transform="translate(313.62 181.2) rotate(9.23)"><tspan x="0" y="0">e</tspan></text>
    <text class="cls-19" transform="translate(318.31 181.97) rotate(17.28)"><tspan x="0" y="0">s</tspan></text>
    <text class="cls-19" transform="translate(322.1 183.14) rotate(24.59)"><tspan x="0" y="0">s</tspan></text>
    <text class="cls-19" transform="translate(221.14 276.42) rotate(-23.1)"><tspan x="0" y="0">A</tspan></text>
    <text class="cls-19" transform="translate(226.83 274.02) rotate(-12.77)"><tspan x="0" y="0">n</tspan></text>
    <text class="cls-19" transform="translate(231.78 272.9) rotate(-3.99)"><tspan x="0" y="0">a</tspan></text>
    <text class="cls-19" transform="translate(236.34 272.64) rotate(2.31)"><tspan x="0" y="0">l</tspan></text>
    <text class="cls-19" transform="translate(238.73 272.66) rotate(8.69)"><tspan x="0" y="0">y</tspan></text>
    <text class="cls-19" transform="translate(243.2 273.35) rotate(16.48)"><tspan x="0" y="0">s</tspan></text>
    <text class="cls-19" transform="translate(247 274.42) rotate(24.5)"><tspan x="0" y="0">e</tspan></text>
    <text class="cls-19" transform="translate(103.42 275.96) rotate(-26.86)"><tspan x="0" y="0">P</tspan></text>
    <text class="cls-19" transform="translate(108.17 273.6) rotate(-18.87)"><tspan x="0" y="0">r</tspan></text>
    <text class="cls-19" transform="translate(111.36 272.45) rotate(-11.43)"><tspan x="0" y="0">e</tspan></text>
    <text class="cls-19" transform="translate(116.02 271.52) rotate(-3.44)"><tspan x="0" y="0">s</tspan></text>
    <text class="cls-19" transform="translate(119.98 271.24) rotate(4.44)"><tspan x="0" y="0">e</tspan></text>
    <text class="cls-19" transform="translate(124.72 271.63) rotate(12.01)"><tspan x="0" y="0">r</tspan></text>
    <text class="cls-19" transform="translate(128.14 272.31) rotate(19.36)"><tspan x="0" y="0">v</tspan></text>
    <text class="cls-19" transform="translate(132.24 273.71) rotate(27.6)"><tspan x="0" y="0">e</tspan></text>
    <text class="cls-19" transform="translate(35.88 180.46) rotate(-16.08)"><tspan x="0" y="0">S</tspan></text>
    <text class="cls-19" transform="translate(40.69 179.04) rotate(-6.88)"><tspan x="0" y="0">h</tspan></text>
    <text class="cls-19" transform="translate(45.71 178.44) rotate(1.77)"><tspan x="0" y="0">a</tspan></text>
    <text class="cls-19" transform="translate(50.24 178.6) rotate(9.09)"><tspan x="0" y="0">r</tspan></text>
    <text class="cls-19" transform="translate(53.58 179.07) rotate(16.48)"><tspan x="0" y="0">e</tspan></text>
    <text class="cls-19" transform="translate(62.26 68) rotate(-16.48)"><tspan x="0" y="0">R</tspan></text>
    <text class="cls-19" transform="translate(67.83 66.36) rotate(-7.11)"><tspan x="0" y="0">e</tspan></text>
    <text class="cls-19" transform="translate(72.53 65.75) rotate(1.68)"><tspan x="0" y="0">u</tspan></text>
    <text class="cls-19" transform="translate(77.49 65.92) rotate(9.81)"><tspan x="0" y="0">s</tspan></text>
    <text class="cls-19" transform="translate(81.4 66.55) rotate(17.85)"><tspan x="0" y="0">e</tspan></text>
  </g>
</svg>